<svg width="14" height="14" viewBox="0 0 14 14" fill="none" xmlns="http://www.w3.org/2000/svg">
<g clip-path="url(#clip0_20_451)">
<path d="M4.08301 4.08325L5.79918 5.09792C6.79972 5.68947 7.19963 5.68947 8.20017 5.09792L9.91634 4.08325" stroke="#5D5D5D" stroke-width="1.5" stroke-linecap="round" stroke-linejoin="round"/>
<path d="M5.3101 1.18812L5.32897 1.93788L5.3101 1.18812ZM1.17619 5.27313L1.92602 5.2891L1.17619 5.27313ZM8.69655 1.18813L8.71542 0.438363L8.69655 1.18813ZM12.8305 5.27314L13.5803 5.25718L12.8305 5.27314ZM5.29124 11.8332C5.70532 11.8436 6.04945 11.5164 6.05987 11.1023C6.07029 10.6882 5.74306 10.3441 5.32897 10.3337L5.31011 11.0834L5.29124 11.8332ZM1.17619 6.9984L1.92602 6.98244L1.17619 6.9984ZM12.0805 6.12549C12.0749 6.53966 12.406 6.88002 12.8202 6.8857C13.2344 6.89137 13.5747 6.56022 13.5804 6.14604L12.8305 6.13577L12.0805 6.12549ZM5.3101 1.18812L5.32897 1.93788C6.44893 1.9097 7.55773 1.9097 8.67768 1.93789L8.69655 1.18813L8.71542 0.438363C7.57031 0.409544 6.43634 0.409543 5.29123 0.438359L5.3101 1.18812ZM1.17619 5.27313L0.426363 5.25717C0.413868 5.84403 0.413869 6.4275 0.426364 7.01437L1.17619 6.9984L1.92602 6.98244C1.91398 6.41685 1.91398 5.85468 1.92602 5.2891L1.17619 5.27313ZM5.3101 1.18812L5.29123 0.438359C4.3949 0.460915 3.64073 0.477987 3.03144 0.584272C2.38832 0.696457 1.83314 0.918471 1.36182 1.39236L1.89359 1.92125L2.42536 2.45013C2.6142 2.26026 2.8485 2.13883 3.2892 2.06196C3.76373 1.97918 4.38773 1.96157 5.32897 1.93788L5.3101 1.18812ZM1.17619 5.27313L1.92602 5.2891C1.94558 4.37034 1.96046 3.76453 2.04061 3.30219C2.11459 2.87547 2.23345 2.64309 2.42536 2.45013L1.89359 1.92125L1.36182 1.39236C0.893566 1.86317 0.672797 2.41069 0.56266 3.04595C0.458698 3.6456 0.444956 4.38385 0.426363 5.25717L1.17619 5.27313ZM8.69655 1.18813L8.67768 1.93789C9.61892 1.96158 10.2429 1.97919 10.7175 2.06197C11.1582 2.13884 11.3925 2.26027 11.5813 2.45014L12.1131 1.92126L12.6448 1.39237C12.1735 0.918481 11.6183 0.696466 10.9752 0.58428C10.3659 0.477994 9.61175 0.460921 8.71542 0.438363L8.69655 1.18813ZM12.8305 5.27314L13.5803 5.25718C13.5617 4.38386 13.548 3.64561 13.444 3.04596C13.3339 2.4107 13.1131 1.86318 12.6448 1.39237L12.1131 1.92126L11.5813 2.45014C11.7732 2.6431 11.8921 2.87548 11.966 3.3022C12.0462 3.76453 12.0611 4.37035 12.0806 5.28911L12.8305 5.27314ZM5.31011 11.0834L5.32897 10.3337C4.38774 10.31 3.76374 10.2924 3.28921 10.2096C2.8485 10.1327 2.6142 10.0113 2.42536 9.8214L1.89359 10.3503L1.36182 10.8792C1.83314 11.3531 2.38832 11.5751 3.03144 11.6873C3.64073 11.7935 4.39491 11.8106 5.29124 11.8332L5.31011 11.0834ZM1.17619 6.9984L0.426364 7.01437C0.444957 7.88769 0.4587 8.62594 0.562663 9.22558C0.6728 9.86085 0.893568 10.4084 1.36182 10.8792L1.89359 10.3503L2.42536 9.8214C2.23345 9.62844 2.1146 9.39606 2.04061 8.96935C1.96046 8.50701 1.94558 7.9012 1.92602 6.98244L1.17619 6.9984ZM12.8305 6.13577C13.5804 6.14604 13.5804 6.14603 13.5804 6.14602C13.5804 6.14601 13.5804 6.146 13.5804 6.14599C13.5804 6.14596 13.5804 6.14592 13.5804 6.14588C13.5804 6.1458 13.5804 6.14568 13.5804 6.14553C13.5804 6.14523 13.5804 6.14481 13.5804 6.14426C13.5804 6.14316 13.5805 6.14157 13.5805 6.13952C13.5805 6.1354 13.5806 6.12939 13.5807 6.12168C13.5809 6.10625 13.5811 6.08397 13.5814 6.05622C13.582 6.00076 13.5827 5.92329 13.5831 5.83502C13.5841 5.66032 13.5841 5.43647 13.5803 5.25718L12.8305 5.27314L12.0806 5.28911C12.084 5.44761 12.0841 5.65507 12.0832 5.82724C12.0827 5.9124 12.0821 5.98724 12.0815 6.04075C12.0812 6.06748 12.081 6.08884 12.0808 6.10343C12.0807 6.11073 12.0807 6.11633 12.0806 6.12006C12.0806 6.12193 12.0806 6.12333 12.0805 6.12424C12.0805 6.1247 12.0805 6.12503 12.0805 6.12524C12.0805 6.12535 12.0805 6.12542 12.0805 6.12546C12.0805 6.12548 12.0805 6.12549 12.0805 6.1255C12.0805 6.1255 12.0805 6.1255 12.0805 6.1255C12.0805 6.1255 12.0805 6.12549 12.8305 6.13577Z" fill="#5D5D5D"/>
<path d="M8.75 10.2084C8.75 10.2084 9.04167 10.2084 9.33333 10.7917C9.33333 10.7917 10.2598 9.33341 11.0833 9.04175" stroke="#5D5D5D" stroke-width="1.5" stroke-linecap="round" stroke-linejoin="round"/>
<path d="M12.8333 9.91667C12.8333 11.5275 11.5275 12.8333 9.91667 12.8333C8.30584 12.8333 7 11.5275 7 9.91667C7 8.30584 8.30584 7 9.91667 7C11.5275 7 12.8333 8.30584 12.8333 9.91667Z" stroke="#5D5D5D" stroke-width="1.5" stroke-linecap="round"/>
</g>
<defs>
<clipPath id="clip0_20_451">
<rect width="14" height="14" fill="white"/>
</clipPath>
</defs>
</svg>
