<?xml version="1.0" encoding="UTF-8"?>
<svg version="1.1" xmlns="http://www.w3.org/2000/svg" width="172" height="134">
<path d="M0 0 C56.76 0 113.52 0 172 0 C172 44.22 172 88.44 172 134 C115.24 134 58.48 134 0 134 C0 89.78 0 45.56 0 0 Z " fill="#005416" transform="translate(0,0)"/>
<path d="M0 0 C2.37744845 0.42648884 4.75134251 0.86577233 7.125 1.3125 C7.79015625 1.43044922 8.4553125 1.54839844 9.140625 1.66992188 C13.51942154 2.50704474 17.10913287 3.83638697 21 6 C21 6.66 21 7.32 21 8 C21.57105469 8.09925781 22.14210938 8.19851563 22.73046875 8.30078125 C27.14908107 9.66210931 30.4638738 13.11715813 34 16 C34.63679688 16.46535156 35.27359375 16.93070313 35.9296875 17.41015625 C41.40162735 21.5809904 44.015348 26.91070998 47 33 C47.42200684 33.69593262 47.84401367 34.39186523 48.27880859 35.10888672 C52.4123798 42.3078358 52.63685412 48.44431626 52.375 56.625 C52.36082031 57.800625 52.34664062 58.97625 52.33203125 60.1875 C52.05238007 76.78013673 52.05238007 76.78013673 48.125 84.3125 C47.61195313 85.31925781 47.09890625 86.32601562 46.5703125 87.36328125 C45.1915779 89.6783207 43.94585116 91.18816063 42 93 C41.401875 93.928125 40.80375 94.85625 40.1875 95.8125 C37.72665806 99.39829825 35.20873736 102.07028328 32 105 C31.34 105 30.68 105 30 105 C29.814375 105.556875 29.62875 106.11375 29.4375 106.6875 C23.44727127 116.32395491 7.51995365 121.37535902 -2.94921875 124.08984375 C-23.28210109 128.40917819 -45.24001541 125.02959126 -63.234375 114.82421875 C-77.26026633 105.57267744 -88.16288611 91.48537818 -92 75 C-92.15916189 72.32931744 -92.24006282 69.78711472 -92.1875 67.125 C-92.1781543 66.42101074 -92.16880859 65.71702148 -92.15917969 64.99169922 C-91.95540932 53.66676918 -90.26817832 44.68718468 -84 35 C-83.70738281 34.38382813 -83.41476563 33.76765625 -83.11328125 33.1328125 C-80.97518689 29.03667383 -77.89228234 25.58288853 -75 22 C-74.45085937 21.28972656 -73.90171875 20.57945313 -73.3359375 19.84765625 C-68.48649474 13.86054801 -62.75032112 10.33564772 -55.88671875 6.9609375 C-53.75814809 5.92302209 -53.75814809 5.92302209 -51 4 C-49.37357014 3.3836401 -47.7246185 2.82488239 -46.0625 2.3125 C-45.20785156 2.04050781 -44.35320312 1.76851563 -43.47265625 1.48828125 C-40.89489426 0.97924452 -39.45550663 1.15111256 -37 2 C-37 2.99 -37 3.98 -37 5 C-39 6.6875 -39 6.6875 -41 8 C-41.66 7.67 -42.32 7.34 -43 7 C-43.33 7.66 -43.66 8.32 -44 9 C-44.99 9 -45.98 9 -47 9 C-47.268125 9.928125 -47.53625 10.85625 -47.8125 11.8125 C-48.90977245 14.75781025 -49.53357169 16.15017877 -52 18 C-52.66 18 -53.32 18 -54 18 C-54 18.99 -54 19.98 -54 21 C-54.66 21 -55.32 21 -56 21 C-56 23.64 -56 26.28 -56 29 C-55.34 29 -54.68 29 -54 29 C-54.02320313 30.03640625 -54.04640625 31.0728125 -54.0703125 32.140625 C-54.08907667 33.51040944 -54.10727618 34.8802017 -54.125 36.25 C-54.14175781 36.93191406 -54.15851562 37.61382812 -54.17578125 38.31640625 C-54.21287523 42.13708586 -53.92056001 44.70329069 -52 48 C-52 48.99 -52 49.98 -52 51 C-51.401875 51.103125 -50.80375 51.20625 -50.1875 51.3125 C-48 52 -48 52 -46.6875 53.5 C-44.11538912 55.78632079 -41.3370878 55.62921247 -38 56 C-36.45568254 57.54431746 -36.77218719 59.17127686 -36.625 61.3125 C-36.24856254 65.23115224 -35.38818182 66.88498023 -33 70 C-33.04125 71.155 -33.0825 72.31 -33.125 73.5 C-33.4042812 77.14347295 -33.4042812 77.14347295 -30.625 79.25 C-29.325625 80.11625 -29.325625 80.11625 -28 81 C-27.01 82.485 -27.01 82.485 -26 84 C-22.41642759 84.25015873 -22.41642759 84.25015873 -19 84 C-18.67 83.34 -18.34 82.68 -18 82 C-16.68 82 -15.36 82 -14 82 C-13.505 80.515 -13.505 80.515 -13 79 C-11.02 78.67 -9.04 78.34 -7 78 C-7.10828125 77.12988281 -7.10828125 77.12988281 -7.21875 76.2421875 C-7.7466387 71.79912426 -8.11496626 67.48368422 -8 63 C-13.65424604 63.42462717 -18.63041359 64.08229057 -24 66 C-25.32 66 -26.64 66 -28 66 C-27.67 64.35 -27.34 62.7 -27 61 C-25.7315625 60.94392578 -25.7315625 60.94392578 -24.4375 60.88671875 C-17.62924737 60.49214956 -12.26962048 59.62184129 -6 57 C-4.68 57 -3.36 57 -2 57 C-2 56.34 -2 55.68 -2 55 C-0.845 54.71125 0.31 54.4225 1.5 54.125 C7.51420732 51.75153604 11.31641441 47.86206618 14 42 C15.46725525 33.44532456 14.14954252 24.52013865 13 16 C12.34 16 11.68 16 11 16 C10.01 14.515 10.01 14.515 9 13 C8.13375 12.505 7.2675 12.01 6.375 11.5 C5.199375 10.7575 5.199375 10.7575 4 10 C4 9.01 4 8.02 4 7 C2.68 6.34 1.36 5.68 0 5 C0 3.35 0 1.7 0 0 Z " fill="#A7A7A3" transform="translate(109,3)"/>
<path d="M0 0 C1.18529297 -0.02449219 2.37058594 -0.04898438 3.59179688 -0.07421875 C11.78037239 -0.10116963 18.47499533 1.30591653 26.0625 4.375 C22.77273192 5.47158936 21.34946233 5.17453138 18.0625 4.375 C18.40694881 6.84766765 18.40694881 6.84766765 19.0625 9.375 C20.0525 9.87 20.0525 9.87 21.0625 10.375 C21.4646875 11.303125 21.4646875 11.303125 21.875 12.25 C23.41471721 15.00528342 25.3737026 15.81832782 28.0625 17.375 C28.0625 18.035 28.0625 18.695 28.0625 19.375 C28.7225 19.375 29.3825 19.375 30.0625 19.375 C32.67080123 28.77553056 34.89776869 39.90353467 30.2265625 48.91796875 C26.66896206 53.39156266 23.63557567 56.69669243 18.0625 58.375 C17.0725 58.375 16.0825 58.375 15.0625 58.375 C15.0625 59.035 15.0625 59.695 15.0625 60.375 C6.68906023 63.61876495 -0.96621235 65.08560362 -9.9375 65.375 C-10.4325 67.355 -10.4325 67.355 -10.9375 69.375 C-10.33164063 69.1584375 -9.72578125 68.941875 -9.1015625 68.71875 C-2.87556139 66.64980194 2.52147355 65.99923891 9.0625 66.375 C10.09840199 71.42502222 10.16501672 76.24916389 10.0625 81.375 C9.093125 81.66375 8.12375 81.9525 7.125 82.25 C3.95585797 83.01714682 3.95585797 83.01714682 3.0625 85.375 C1.7425 85.375 0.4225 85.375 -0.9375 85.375 C-1.4325 86.86 -1.4325 86.86 -1.9375 88.375 C-5.1875 88.6875 -5.1875 88.6875 -8.9375 88.375 C-11.125 86.0625 -11.125 86.0625 -12.9375 83.375 C-13.68 82.92125 -14.4225 82.4675 -15.1875 82 C-15.765 81.46375 -16.3425 80.9275 -16.9375 80.375 C-16.97991723 78.04205225 -16.97842937 75.70797433 -16.9375 73.375 C-17.411875 72.75625 -17.88625 72.1375 -18.375 71.5 C-20.8268619 68.16546782 -20.68685431 64.41990289 -20.9375 60.375 C-21.56398437 60.26542969 -22.19046875 60.15585937 -22.8359375 60.04296875 C-23.65320313 59.88441406 -24.47046875 59.72585937 -25.3125 59.5625 C-26.12460938 59.41167969 -26.93671875 59.26085938 -27.7734375 59.10546875 C-29.9375 58.375 -29.9375 58.375 -31.9375 55.375 C-32.9275 55.045 -33.9175 54.715 -34.9375 54.375 C-39.40625562 47.67186657 -37.75097999 39.99034885 -36.9375 32.375 C-37.5975 32.375 -38.2575 32.375 -38.9375 32.375 C-38.9375 29.735 -38.9375 27.095 -38.9375 24.375 C-38.2775 24.375 -37.6175 24.375 -36.9375 24.375 C-36.9375 23.385 -36.9375 22.395 -36.9375 21.375 C-36.15375 20.75625 -35.37 20.1375 -34.5625 19.5 C-31.75666294 17.22860809 -30.97415668 15.76769458 -29.9375 12.375 C-28.9475 12.375 -27.9575 12.375 -26.9375 12.375 C-26.6075 11.385 -26.2775 10.395 -25.9375 9.375 C-24.9475 9.705 -23.9575 10.035 -22.9375 10.375 C-21.9475 9.385 -20.9575 8.395 -19.9375 7.375 C-20.4325 6.385 -20.4325 6.385 -20.9375 5.375 C-28.81530826 6.04545177 -35.29613075 9.180451 -41.9375 13.375 C-48.58477273 17.375 -48.58477273 17.375 -50.9375 17.375 C-51.20046875 17.96796875 -51.4634375 18.5609375 -51.734375 19.171875 C-52.99152509 21.47392907 -54.27337918 22.84883383 -56.1875 24.625 C-60.88516246 29.19490177 -65.49017234 33.84862436 -66.9375 40.375 C-67.39125 41.1175 -67.845 41.86 -68.3125 42.625 C-72.77052319 50.16934694 -73.56410114 57.27112023 -74.125 65.875 C-74.20685547 66.98359375 -74.28871094 68.0921875 -74.37304688 69.234375 C-74.57184176 71.9473405 -74.75971003 74.66059084 -74.9375 77.375 C-75.2675 77.375 -75.5975 77.375 -75.9375 77.375 C-76.50415802 61.87060698 -75.84597277 48.21482735 -67.9375 34.375 C-67.2775 34.375 -66.6175 34.375 -65.9375 34.375 C-65.710625 33.488125 -65.48375 32.60125 -65.25 31.6875 C-63.74086427 27.87872888 -61.91771753 26.14234485 -58.9375 23.375 C-58.33292969 22.58480469 -57.72835937 21.79460938 -57.10546875 20.98046875 C-51.88844115 14.71063557 -44.57589245 10.11329163 -36.9375 7.375 C-35.9165625 6.96121094 -35.9165625 6.96121094 -34.875 6.5390625 C-31.19978337 5.06627348 -29.0119082 4.375 -24.9375 4.375 C-24.9375 3.715 -24.9375 3.055 -24.9375 2.375 C-16.58663279 0.5258718 -8.53918233 0.00925657 0 0 Z " fill="#A05C09" transform="translate(91.9375,-0.375)"/>
<path d="M0 0 C1.18529297 -0.02449219 2.37058594 -0.04898438 3.59179688 -0.07421875 C11.78037239 -0.10116963 18.47499533 1.30591653 26.0625 4.375 C22.77273192 5.47158936 21.34946233 5.17453138 18.0625 4.375 C18.40694881 6.84766765 18.40694881 6.84766765 19.0625 9.375 C20.0525 9.87 20.0525 9.87 21.0625 10.375 C21.4646875 11.303125 21.4646875 11.303125 21.875 12.25 C23.41471721 15.00528342 25.3737026 15.81832782 28.0625 17.375 C28.0625 18.035 28.0625 18.695 28.0625 19.375 C28.7225 19.375 29.3825 19.375 30.0625 19.375 C29.5675 20.86 29.5675 20.86 29.0625 22.375 C28.69125 21.900625 28.32 21.42625 27.9375 20.9375 C25.43603038 18.85294198 23.24656582 18.72878509 20.0625 18.375 C20.0625 17.385 20.0625 16.395 20.0625 15.375 C19.0725 15.045 18.0825 14.715 17.0625 14.375 C13.0625 9.91785714 13.0625 9.91785714 13.0625 7.375 C11.0825 7.045 9.1025 6.715 7.0625 6.375 C7.19269531 6.94347656 7.32289062 7.51195312 7.45703125 8.09765625 C7.59496094 8.86980469 7.73289062 9.64195313 7.875 10.4375 C8.10123047 11.56865234 8.10123047 11.56865234 8.33203125 12.72265625 C7.91370807 16.83919881 5.92259367 19.45690474 3.0625 22.375 C0.66746545 23.999 -1.81100075 25.0742782 -4.5 26.125 C-5.20237793 26.41737549 -5.90475586 26.70975098 -6.62841797 27.01098633 C-11.79699027 29.09849764 -16.99932555 30.49561067 -22.44140625 31.69921875 C-25.96236832 32.65246826 -28.12679398 34.06877968 -30.9375 36.375 C-31.55625 36.808125 -32.175 37.24125 -32.8125 37.6875 C-34.75964929 40.60822393 -34.33513411 42.96670761 -33.9375 46.375 C-31.57750078 51.35722058 -28.56251631 55.2465092 -24.9375 59.375 C-27.3125 59.0625 -27.3125 59.0625 -29.9375 58.375 C-30.5975 57.385 -31.2575 56.395 -31.9375 55.375 C-32.9275 55.045 -33.9175 54.715 -34.9375 54.375 C-39.40625562 47.67186657 -37.75097999 39.99034885 -36.9375 32.375 C-37.5975 32.375 -38.2575 32.375 -38.9375 32.375 C-38.9375 29.735 -38.9375 27.095 -38.9375 24.375 C-38.2775 24.375 -37.6175 24.375 -36.9375 24.375 C-36.9375 23.385 -36.9375 22.395 -36.9375 21.375 C-36.15375 20.75625 -35.37 20.1375 -34.5625 19.5 C-31.75666294 17.22860809 -30.97415668 15.76769458 -29.9375 12.375 C-28.9475 12.375 -27.9575 12.375 -26.9375 12.375 C-26.6075 11.385 -26.2775 10.395 -25.9375 9.375 C-24.9475 9.705 -23.9575 10.035 -22.9375 10.375 C-21.9475 9.385 -20.9575 8.395 -19.9375 7.375 C-20.4325 6.385 -20.4325 6.385 -20.9375 5.375 C-28.81530826 6.04545177 -35.29613075 9.180451 -41.9375 13.375 C-48.58477273 17.375 -48.58477273 17.375 -50.9375 17.375 C-51.20046875 17.96796875 -51.4634375 18.5609375 -51.734375 19.171875 C-52.99152509 21.47392907 -54.27337918 22.84883383 -56.1875 24.625 C-60.88516246 29.19490177 -65.49017234 33.84862436 -66.9375 40.375 C-67.39125 41.1175 -67.845 41.86 -68.3125 42.625 C-72.77052319 50.16934694 -73.56410114 57.27112023 -74.125 65.875 C-74.20685547 66.98359375 -74.28871094 68.0921875 -74.37304688 69.234375 C-74.57184176 71.9473405 -74.75971003 74.66059084 -74.9375 77.375 C-75.2675 77.375 -75.5975 77.375 -75.9375 77.375 C-76.50415802 61.87060698 -75.84597277 48.21482735 -67.9375 34.375 C-67.2775 34.375 -66.6175 34.375 -65.9375 34.375 C-65.710625 33.488125 -65.48375 32.60125 -65.25 31.6875 C-63.74086427 27.87872888 -61.91771753 26.14234485 -58.9375 23.375 C-58.33292969 22.58480469 -57.72835937 21.79460938 -57.10546875 20.98046875 C-51.88844115 14.71063557 -44.57589245 10.11329163 -36.9375 7.375 C-35.9165625 6.96121094 -35.9165625 6.96121094 -34.875 6.5390625 C-31.19978337 5.06627348 -29.0119082 4.375 -24.9375 4.375 C-24.9375 3.715 -24.9375 3.055 -24.9375 2.375 C-16.58663279 0.5258718 -8.53918233 0.00925657 0 0 Z " fill="#8C8286" transform="translate(91.9375,-0.375)"/>
<path d="M0 0 C2.6875 0.0625 2.6875 0.0625 6 1 C7.54339842 2.70233918 8.7195517 4.45047076 9.921875 6.40625 C10.9219781 8.16526457 10.9219781 8.16526457 13 9 C12.67 9.99 12.34 10.98 12 12 C11.85175781 12.61746094 11.70351562 13.23492187 11.55078125 13.87109375 C10.91215245 16.33955258 10.09029569 18.67782453 9.1875 21.0625 C8.71376953 22.34833984 8.71376953 22.34833984 8.23046875 23.66015625 C6.8371387 26.30969498 5.55140945 27.47115936 3 29 C2.34 29 1.68 29 1 29 C1 29.66 1 30.32 1 31 C-0.98 31 -2.96 31 -5 31 C-5 31.66 -5 32.32 -5 33 C-6.18335938 33.32871094 -7.36671875 33.65742187 -8.5859375 33.99609375 C-18.48526108 36.91344754 -26.31636823 39.70471235 -33 48 C-33.33 48.99 -33.66 49.98 -34 51 C-35.15147661 49.73427767 -36.29599314 48.46222094 -37.4375 47.1875 C-38.07558594 46.47980469 -38.71367188 45.77210937 -39.37109375 45.04296875 C-42.42142475 41.21725385 -42.08898858 37.71639479 -42 33 C-40.515 32.505 -40.515 32.505 -39 32 C-38.67 31.01 -38.34 30.02 -38 29 C-33.78728587 25.66887029 -30.01028477 24.25103456 -24.8125 23.0625 C-18.87643605 21.63049349 -13.56632713 19.67865562 -8.07421875 16.953125 C-6 16 -6 16 -4 16 C-3.566875 15.1028125 -3.566875 15.1028125 -3.125 14.1875 C-2 12 -2 12 0 9 C0.24107326 6.71351152 0.24107326 6.71351152 0.125 4.3125 C0.10695312 3.50425781 0.08890625 2.69601563 0.0703125 1.86328125 C0.04710937 1.24839844 0.02390625 0.63351563 0 0 Z " fill="#995304" transform="translate(99,6)"/>
<path d="M0 0 C7.875 0.875 7.875 0.875 9 2 C9.83915503 9.52012006 8.16969103 14.90044138 3.8125 21.125 C0.13849299 25.25409549 -4.426443 28.73192115 -10 29.3125 C-10.66 29.209375 -11.32 29.10625 -12 29 C-12 29.66 -12 30.32 -12 31 C-15.68239028 32.65235461 -18.87359732 33.28735973 -22.875 33.6875 C-28.55560378 34.52881341 -30.7818684 36.20924861 -34.3984375 40.51171875 C-36 42 -36 42 -39.9375 42.4375 C-40.948125 42.293125 -41.95875 42.14875 -43 42 C-43.66 40.35 -44.32 38.7 -45 37 C-37.17467371 28.75794036 -30.10438651 24.78721584 -19 22 C-18.01 22 -17.02 22 -16 22 C-16 21.34 -16 20.68 -16 20 C-14.02 20 -12.04 20 -10 20 C-10 19.34 -10 18.68 -10 18 C-9.071875 17.484375 -8.14375 16.96875 -7.1875 16.4375 C-2.88198623 13.73639938 -2.12724138 9.727684 -1 5 C-0.62770641 3.34160126 -0.2706431 1.67798725 0 0 Z " fill="#25113C" transform="translate(110,17)"/>
<path d="M0 0 C-1.17369141 0.38091797 -1.17369141 0.38091797 -2.37109375 0.76953125 C-3.88896484 1.28580078 -3.88896484 1.28580078 -5.4375 1.8125 C-6.44683594 2.14894531 -7.45617187 2.48539063 -8.49609375 2.83203125 C-9.32238281 3.21746094 -10.14867188 3.60289063 -11 4 C-11.33 4.99 -11.66 5.98 -12 7 C-12.66 7 -13.32 7 -14 7 C-14.66 9.64 -15.32 12.28 -16 15 C-14.35 14.01 -12.7 13.02 -11 12 C-11 13.98 -11 15.96 -11 18 C-9.35 18.33 -7.7 18.66 -6 19 C-6 18.34 -6 17.68 -6 17 C-0.60539047 14.72858546 4.26157749 14.79586639 10 15 C11.03590199 20.05002222 11.10251672 24.87416389 11 30 C10.030625 30.28875 9.06125 30.5775 8.0625 30.875 C4.89335797 31.64214682 4.89335797 31.64214682 4 34 C2.68 34 1.36 34 0 34 C-0.33 34.99 -0.66 35.98 -1 37 C-4.25 37.3125 -4.25 37.3125 -8 37 C-10.1875 34.6875 -10.1875 34.6875 -12 32 C-12.7425 31.54625 -13.485 31.0925 -14.25 30.625 C-14.8275 30.08875 -15.405 29.5525 -16 29 C-16.04241723 26.66705225 -16.04092937 24.33297433 -16 22 C-16.47953125 21.37480469 -16.9590625 20.74960938 -17.453125 20.10546875 C-19.33190732 17.54823727 -19.48111268 15.88708731 -19.6875 12.75 C-19.75324219 11.85796875 -19.81898437 10.9659375 -19.88671875 10.046875 C-19.92410156 9.37140625 -19.96148437 8.6959375 -20 8 C-19.278125 7.608125 -18.55625 7.21625 -17.8125 6.8125 C-14.87761159 5.08523497 -14.87761159 5.08523497 -12.5625 2.375 C-8.5439633 -1.34949743 -5.0779763 -1.41964929 0 0 Z " fill="#8F3F30" transform="translate(91,51)"/>
<path d="M0 0 C1.25296875 -0.02578125 2.5059375 -0.0515625 3.796875 -0.078125 C7.45212662 0.2692066 9.30955391 1.11761543 12.25 3.25 C12.25 2.59 12.25 1.93 12.25 1.25 C17.23342543 0.22775889 22.17545485 -0.1132306 27.25 0.25 C28.25 1.25 28.25 1.25 28.3828125 3.28125 C28.38023438 4.0959375 28.37765625 4.910625 28.375 5.75 C28.37886719 6.97203125 28.37886719 6.97203125 28.3828125 8.21875 C28.25 10.25 28.25 10.25 27.25 11.25 C25.06707226 11.48481693 22.87796826 11.66363323 20.6875 11.8125 C19.48996094 11.89628906 18.29242188 11.98007813 17.05859375 12.06640625 C16.13175781 12.12699219 15.20492187 12.18757813 14.25 12.25 C14.25 11.59 14.25 10.93 14.25 10.25 C13.38375 10.5903125 13.38375 10.5903125 12.5 10.9375 C10.25 11.25 10.25 11.25 8 9.8125 C7.4225 9.296875 6.845 8.78125 6.25 8.25 C6.25 9.57 6.25 10.89 6.25 12.25 C4.6 11.59 2.95 10.93 1.25 10.25 C1.25 10.91 1.25 11.57 1.25 12.25 C-0.22906892 12.27689216 -1.70827483 12.29634621 -3.1875 12.3125 C-4.42306641 12.32990234 -4.42306641 12.32990234 -5.68359375 12.34765625 C-7.75 12.25 -7.75 12.25 -8.75 11.25 C-11.42058851 11.10884839 -14.07432238 11.20752893 -16.75 11.25 C-16.75 10.59 -16.75 9.93 -16.75 9.25 C-16.09 9.25 -15.43 9.25 -14.75 9.25 C-14.42 8.59 -14.09 7.93 -13.75 7.25 C-15.07 6.92 -16.39 6.59 -17.75 6.25 C-17.42 4.6 -17.09 2.95 -16.75 1.25 C-11.15957701 0.46537923 -5.64627981 0.11060293 0 0 Z " fill="#636A85" transform="translate(83.75,96.75)"/>
<path d="M0 0 C2.31 0 4.62 0 7 0 C8.84651134 3.11598788 9.38079379 5.38245897 9 9 C6.24253583 11.75746417 3.3982678 11.65569514 -0.3125 12.0625 C-4.57775659 12.56307813 -8.79973733 13.08195419 -13 14 C-13 14.66 -13 15.32 -13 16 C-13.66 16 -14.32 16 -15 16 C-15.25265625 16.60457031 -15.5053125 17.20914062 -15.765625 17.83203125 C-17.85370564 21.49938807 -21.29310194 23.16374438 -25 25 C-28.4375 25.875 -28.4375 25.875 -31 26 C-32 25 -32 25 -32.09765625 23.15234375 C-32.06510417 21.1015625 -32.03255208 19.05078125 -32 17 C-30.02 16.67 -28.04 16.34 -26 16 C-25.34 13.69 -24.68 11.38 -24 9 C-23.06027344 8.88785156 -23.06027344 8.88785156 -22.1015625 8.7734375 C-19.59401809 8.37001553 -17.36502817 7.93390509 -15 7 C-13.30834699 4.01716843 -13.30834699 4.01716843 -13 1 C-8.17639811 0.80705592 -4.50353262 1.24252386 0 3 C0 2.01 0 1.02 0 0 Z " fill="#231459" transform="translate(88,7)"/>
<path d="M0 0 C1 2 1 2 0.36328125 4.27734375 C-0.15685547 5.59412109 -0.15685547 5.59412109 -0.6875 6.9375 C-1.02136719 7.81277344 -1.35523438 8.68804687 -1.69921875 9.58984375 C-3.13912518 12.25777848 -4.41427304 13.45468389 -7 15 C-7.66 15 -8.32 15 -9 15 C-9 15.66 -9 16.32 -9 17 C-10.98 17 -12.96 17 -15 17 C-15 17.66 -15 18.32 -15 19 C-16.18335937 19.32871094 -17.36671875 19.65742187 -18.5859375 19.99609375 C-28.73390379 22.98962578 -35.84189277 25.90666268 -43 34 C-46.8984375 32.25 -46.8984375 32.25 -47.8125 30 C-48 28 -48 28 -47 26 C-45.33720673 24.9935725 -43.67016516 23.99414593 -42 23 C-41.54625 22.443125 -41.0925 21.88625 -40.625 21.3125 C-38.02563934 19.21301639 -35.24288403 19.9431073 -32 20 C-31.36449219 19.67386719 -30.72898437 19.34773438 -30.07421875 19.01171875 C-27.61927432 17.81429764 -25.96233648 17.7952254 -23.25 17.875 C-22.45078125 17.89304687 -21.6515625 17.91109375 -20.828125 17.9296875 C-20.22484375 17.95289062 -19.6215625 17.97609375 -19 18 C-19 17.34 -19 16.68 -19 16 C-15.91190305 14.23537317 -14.76687864 14 -11 14 C-11 13.34 -11 12.68 -11 12 C-9.9275 11.278125 -8.855 10.55625 -7.75 9.8125 C-3.75378284 7.10512367 -2.10733797 4.29896945 0 0 Z " fill="#874104" transform="translate(109,20)"/>
<path d="M0 0 C0 0.66 0 1.32 0 2 C-1.65 2.33 -3.3 2.66 -5 3 C-5 3.99 -5 4.98 -5 6 C-6.07378906 6.32613281 -7.14757812 6.65226562 -8.25390625 6.98828125 C-9.69016629 7.42948531 -11.12636073 7.87090299 -12.5625 8.3125 C-13.26697266 8.52583984 -13.97144531 8.73917969 -14.69726562 8.95898438 C-21.90993846 11.18593866 -28.7463316 13.36191684 -34 19 C-34.91098661 23.91932769 -33.88025747 27.07881254 -31.22265625 31.2890625 C-29.28822542 33.9960296 -27.19536975 36.49971779 -25 39 C-27.375 38.6875 -27.375 38.6875 -30 38 C-30.66 37.01 -31.32 36.02 -32 35 C-32.99 34.67 -33.98 34.34 -35 34 C-39.09582603 27.56370195 -37.91377777 21.32123155 -37 14 C-35.39125 13.87625 -35.39125 13.87625 -33.75 13.75 C-29.57791854 12.91558371 -28.72435286 12.08759991 -26 9 C-24.700625 8.2265625 -24.700625 8.2265625 -23.375 7.4375 C-20.74256396 6.07382261 -20.74256396 6.07382261 -19 3 C-18.34 3 -17.68 3 -17 3 C-17 2.34 -17 1.68 -17 1 C-11.33357449 -0.22517308 -5.76291482 -0.09228867 0 0 Z " fill="#977863" transform="translate(92,20)"/>
<path d="M0 0 C2.475 0.495 2.475 0.495 5 1 C5.03738281 1.60328125 5.07476562 2.2065625 5.11328125 2.828125 C5.5104567 7.65653242 6.03428237 10.13167265 9 14 C8.95875 15.155 8.9175 16.31 8.875 17.5 C8.5957188 21.14347295 8.5957188 21.14347295 11.375 23.25 C12.674375 24.11625 12.674375 24.11625 14 25 C14.66 25.99 15.32 26.98 16 28 C19.58357241 28.25015873 19.58357241 28.25015873 23 28 C23.33 27.34 23.66 26.68 24 26 C25.32 26 26.64 26 28 26 C28.33 25.01 28.66 24.02 29 23 C30.98 22.67 32.96 22.34 35 22 C34.9278125 21.40832031 34.855625 20.81664063 34.78125 20.20703125 C34.30089977 16.11738278 33.86689849 12.1261469 34 8 C34.66 8 35.32 8 36 8 C38.18609783 20.16016918 38.18609783 20.16016918 35.3203125 24.60546875 C33.125 26.6875 33.125 26.6875 30.8828125 28.44921875 C28.72174079 29.94939857 28.72174079 29.94939857 28 33 C26.08458862 33.10841951 24.16740227 33.18578079 22.25 33.25 C21.18265625 33.29640625 20.1153125 33.3428125 19.015625 33.390625 C15.27865576 32.90656163 14.35391333 31.86231793 12 29 C11.44957031 28.42378906 10.89914063 27.84757812 10.33203125 27.25390625 C5.12744652 21.46062813 5.12744652 21.46062813 5 17 C5.33 16.34 5.66 15.68 6 15 C5.34 15 4.68 15 4 15 C4 14.34 4 13.68 4 13 C3.34 13 2.68 13 2 13 C1.93941406 12.22914062 1.87882812 11.45828125 1.81640625 10.6640625 C1.73261719 9.66117188 1.64882812 8.65828125 1.5625 7.625 C1.48128906 6.62726563 1.40007812 5.62953125 1.31640625 4.6015625 C1.15034374 2.02072387 1.15034374 2.02072387 0 0 Z " fill="#A58284" transform="translate(67,59)"/>
<path d="M0 0 C2.31 0 4.62 0 7 0 C8.83832664 3.10217621 9.47446226 5.39408679 9 9 C8.01 9.66 7.02 10.32 6 11 C6 10.34 6 9.68 6 9 C0.39 8.67 -5.22 8.34 -11 8 C-11.66 9.32 -12.32 10.64 -13 12 C-15.05859375 12.7578125 -15.05859375 12.7578125 -17.4375 13.125 C-20.77138261 13.66325452 -22.07937253 14.05291502 -25 16 C-25.1875 13.125 -25.1875 13.125 -25 10 C-21.55549263 7.70366176 -19.06187717 7.45983515 -15 7 C-14.34 5.02 -13.68 3.04 -13 1 C-8.17639811 0.80705592 -4.50353262 1.24252386 0 3 C0 2.01 0 1.02 0 0 Z " fill="#320B64" transform="translate(88,7)"/>
<path d="M0 0 C-1.22112032 3.66336097 -2.86720482 4.35042014 -6.11328125 6.23046875 C-8 7 -8 7 -12 7 C-12 7.66 -12 8.32 -12 9 C-12.58007812 9.09796875 -13.16015625 9.1959375 -13.7578125 9.296875 C-19.0806745 10.31577268 -22.54234041 11.80211377 -27 15 C-28.23809856 15.54852468 -29.48878898 16.06943396 -30.75 16.5625 C-34.22102607 17.75026595 -34.22102607 17.75026595 -36 21 C-37.65 20.67 -39.3 20.34 -41 20 C-40.27228237 15.63369419 -38.22160508 14.02241414 -34.8984375 11.31640625 C-32.39660364 9.58159553 -29.92269682 8.8084055 -27 8 C-26.0925 7.484375 -25.185 6.96875 -24.25 6.4375 C-19.89135643 4.50963842 -15.71932721 4.27047527 -11 4 C-11 3.34 -11 2.68 -11 2 C-6.25 1 -6.25 1 -4 1 C-2 0 -2 0 0 0 Z " fill="#25143C" transform="translate(108,37)"/>
<path d="M0 0 C0.8723412 2.99480917 1.10829766 5.63575911 1.0625 8.75 C1.05347656 9.54921875 1.04445313 10.3484375 1.03515625 11.171875 C1.02355469 11.77515625 1.01195313 12.3784375 1 13 C0.030625 13.28875 -0.93875 13.5775 -1.9375 13.875 C-5.10664203 14.64214682 -5.10664203 14.64214682 -6 17 C-7.32 17 -8.64 17 -10 17 C-10.33 17.99 -10.66 18.98 -11 20 C-13.31 20 -15.62 20 -18 20 C-18.66 17.36 -19.32 14.72 -20 12 C-19.34 11.67 -18.68 11.34 -18 11 C-17.34444881 8.47266765 -17.34444881 8.47266765 -17 6 C-15.02 6 -13.04 6 -11 6 C-10.67 7.32 -10.34 8.64 -10 10 C-7.03 10 -4.06 10 -1 10 C-1.33 7.69 -1.66 5.38 -2 3 C-1.34 3 -0.68 3 0 3 C0 2.01 0 1.02 0 0 Z " fill="#A76113" transform="translate(101,68)"/>
<path d="M0 0 C1.76537109 -0.00386719 1.76537109 -0.00386719 3.56640625 -0.0078125 C6.4375 0.125 6.4375 0.125 7.4375 1.125 C7.5354057 2.62238124 7.56724864 4.12442892 7.5625 5.625 C7.56636719 6.84703125 7.56636719 6.84703125 7.5703125 8.09375 C7.4375 10.125 7.4375 10.125 6.4375 11.125 C4.25457226 11.35981693 2.06546826 11.53863323 -0.125 11.6875 C-1.32253906 11.77128906 -2.52007812 11.85507813 -3.75390625 11.94140625 C-4.68074219 12.00199219 -5.60757813 12.06257813 -6.5625 12.125 C-6.5625 11.465 -6.5625 10.805 -6.5625 10.125 C-7.8825 10.455 -9.2025 10.785 -10.5625 11.125 C-10.8925 10.465 -11.2225 9.805 -11.5625 9.125 C-8.9225 8.795 -6.2825 8.465 -3.5625 8.125 C-3.5625 6.145 -3.5625 4.165 -3.5625 2.125 C-4.8825 2.125 -6.2025 2.125 -7.5625 2.125 C-7.8925 3.775 -8.2225 5.425 -8.5625 7.125 C-9.5525 6.795 -10.5425 6.465 -11.5625 6.125 C-12.75 3.5625 -12.75 3.5625 -13.5625 1.125 C-11.0875 2.115 -11.0875 2.115 -8.5625 3.125 C-8.5625 2.465 -8.5625 1.805 -8.5625 1.125 C-5.69616205 -0.30816898 -3.19014499 -0.00700361 0 0 Z " fill="#4A526F" transform="translate(104.5625,96.875)"/>
<path d="M0 0 C2.31 0 4.62 0 7 0 C-0.89133943 8.8320289 -16.55529366 13.34798523 -28.14306641 14.24267578 C-41.98269437 14.80106424 -54.73128878 14.03830341 -68 10 C-68 9.67 -68 9.34 -68 9 C-63.49342622 8.82994061 -59.56174736 9.02784674 -55.15625 10 C-48.04460485 11.34150541 -41.02579711 11.21863241 -33.8125 11.125 C-32.46550153 11.1149393 -31.11849569 11.10581897 -29.77148438 11.09765625 C-26.51412979 11.07430604 -23.25716451 11.0415577 -20 11 C-20 10.34 -20 9.68 -20 9 C-19.20335937 8.81824219 -18.40671875 8.63648437 -17.5859375 8.44921875 C-12.00973884 7.1263979 -7.05067811 5.79116422 -2 3 C-1.34 3 -0.68 3 0 3 C0 2.01 0 1.02 0 0 Z " fill="#899F8E" transform="translate(126,114)"/>
<path d="M0 0 C0 0.33 0 0.66 0 1 C-3.63 1.33 -7.26 1.66 -11 2 C-11 2.66 -11 3.32 -11 4 C-11.7734375 4.24234375 -12.546875 4.4846875 -13.34375 4.734375 C-22.46422298 7.66918066 -29.85578417 10.80824065 -37.3359375 16.828125 C-39 18 -39 18 -41 18 C-41.37125 18.8353125 -41.37125 18.8353125 -41.75 19.6875 C-43.89755857 23.66048336 -46.23918048 26.49278699 -50 29 C-50.68753301 30.65816784 -51.35561283 32.32459336 -52 34 C-52.99 34.495 -52.99 34.495 -54 35 C-54.66 35.99 -55.32 36.98 -56 38 C-55.41623214 33.21310358 -54.28810844 29.26061572 -52 25 C-50.04690112 23.59886384 -48.04291182 22.26660533 -46 21 C-44.82574606 19.50838013 -43.65169621 18.0165828 -42.484375 16.51953125 C-39.04209456 12.99572311 -34.21520124 11.01578893 -29.78515625 8.984375 C-27.82559602 8.12393564 -27.82559602 8.12393564 -27 6 C-25.03125 5.25390625 -25.03125 5.25390625 -22.5 4.5625 C-19.06179388 3.60254502 -15.72287846 2.54899867 -12.375 1.3125 C-8.10104918 -0.15024253 -4.49459644 -0.24515981 0 0 Z " fill="#184227" transform="translate(78,0)"/>
<path d="M0 0 C0.66 0.33 1.32 0.66 2 1 C0.8803014 2.00593243 -0.2459412 3.0045849 -1.375 4 C-2.31472656 4.8353125 -2.31472656 4.8353125 -3.2734375 5.6875 C-5 7 -5 7 -7 7 C-7.26296875 7.59296875 -7.5259375 8.1859375 -7.796875 8.796875 C-9.05402509 11.09892907 -10.33587918 12.47383383 -12.25 14.25 C-16.94766246 18.81990177 -21.55267234 23.47362436 -23 30 C-23.45375 30.7425 -23.9075 31.485 -24.375 32.25 C-28.83302319 39.79434694 -29.62660114 46.89612023 -30.1875 55.5 C-30.26935547 56.60859375 -30.35121094 57.7171875 -30.43554688 58.859375 C-30.63434176 61.5723405 -30.82221003 64.28559084 -31 67 C-31.33 67 -31.66 67 -32 67 C-32.56665802 51.49560698 -31.90847277 37.83982735 -24 24 C-23.34 24 -22.68 24 -22 24 C-21.773125 23.113125 -21.54625 22.22625 -21.3125 21.3125 C-19.80336427 17.50372888 -17.98021753 15.76734485 -15 13 C-14.40445313 12.21367187 -13.80890625 11.42734375 -13.1953125 10.6171875 C-10.79211349 7.75216377 -8.30490385 5.83320627 -5.25 3.6875 C-4.26515625 2.99011719 -3.2803125 2.29273438 -2.265625 1.57421875 C-1.51796875 1.05472656 -0.7703125 0.53523437 0 0 Z " fill="#788072" transform="translate(48,10)"/>
<path d="M0 0 C3.39228531 4.27722931 4.12631248 7.26343886 4.0625 12.6875 C4.05347656 13.68136719 4.04445313 14.67523438 4.03515625 15.69921875 C4.02355469 16.45847656 4.01195313 17.21773437 4 18 C2.02 18.99 2.02 18.99 0 20 C-0.33 19.34 -0.66 18.68 -1 18 C-3.79405061 19.32284697 -6.22950055 20.84398592 -8.75 22.625 C-13.03295381 25.37027678 -15.99480051 25.44689281 -21 25 C-21 24.67 -21 24.34 -21 24 C-20.40832031 23.84144531 -19.81664063 23.68289062 -19.20703125 23.51953125 C-13.8533697 21.93876006 -10.71086264 20.34701052 -7 16 C-5.99646484 15.12408203 -5.99646484 15.12408203 -4.97265625 14.23046875 C-2.53994573 11.47981983 -2.0253413 9.31656999 -1.25 5.75 C-1.00765625 4.67234375 -0.7653125 3.5946875 -0.515625 2.484375 C-0.34546875 1.66453125 -0.1753125 0.8446875 0 0 Z " fill="#963309" transform="translate(119,22)"/>
<path d="M0 0 C1 2 1 2 0.3515625 4.046875 C-1 6 -1 6 -3.1640625 6.828125 C-3.97617188 6.96734375 -4.78828125 7.1065625 -5.625 7.25 C-6.44226563 7.39953125 -7.25953125 7.5490625 -8.1015625 7.703125 C-8.72804688 7.80109375 -9.35453125 7.8990625 -10 8 C-10.66 10.31 -11.32 12.62 -12 15 C-13.98 15 -15.96 15 -18 15 C-17.67 17.64 -17.34 20.28 -17 23 C-15.02 23 -13.04 23 -11 23 C-12.1875 24.5625 -12.1875 24.5625 -14 26 C-16.6875 25.6875 -16.6875 25.6875 -19 25 C-19 24.34 -19 23.68 -19 23 C-19.66 23 -20.32 23 -21 23 C-21 20.36 -21 17.72 -21 15 C-20.34 15 -19.68 15 -19 15 C-19 14.01 -19 13.02 -19 12 C-18.21625 11.38125 -17.4325 10.7625 -16.625 10.125 C-13.51145187 7.95790353 -13.51145187 7.95790353 -12 3 C-8.37 3 -4.74 3 -1 3 C-0.67 2.01 -0.34 1.02 0 0 Z " fill="#785A86" transform="translate(74,9)"/>
<path d="M0 0 C1 2 1 2 0.36328125 4.27734375 C0.01652344 5.15519531 -0.33023438 6.03304688 -0.6875 6.9375 C-1.02136719 7.81277344 -1.35523437 8.68804687 -1.69921875 9.58984375 C-3.13912518 12.25777848 -4.41427304 13.45468389 -7 15 C-7.66 15 -8.32 15 -9 15 C-9 15.66 -9 16.32 -9 17 C-10.98 17 -12.96 17 -15 17 C-15 17.66 -15 18.32 -15 19 C-16.91197039 19.70045456 -18.82980435 20.384919 -20.75 21.0625 C-21.81734375 21.44535156 -22.8846875 21.82820313 -23.984375 22.22265625 C-26.92280042 22.98010011 -28.22348948 23.07151741 -31 22 C-27.9315153 19.02449969 -26.53763669 18.03525487 -22.1875 17.75 C-20.6096875 17.87375 -20.6096875 17.87375 -19 18 C-19 17.34 -19 16.68 -19 16 C-15.91190305 14.23537317 -14.76687864 14 -11 14 C-11 13.34 -11 12.68 -11 12 C-9.9275 11.278125 -8.855 10.55625 -7.75 9.8125 C-3.75378284 7.10512367 -2.10733797 4.29896945 0 0 Z " fill="#794107" transform="translate(109,20)"/>
<path d="M0 0 C3.875 0.875 3.875 0.875 5 2 C5.04080783 3.99958364 5.04254356 6.00045254 5 8 C5.99 7.67 6.98 7.34 8 7 C14.3619948 19.52121685 11.06499677 32.7129062 9 46 C8.34 46 7.68 46 7 46 C7.02618408 45.11328613 7.05236816 44.22657227 7.0793457 43.31298828 C7.16530961 39.97671814 7.22760042 36.64164895 7.2746582 33.3046875 C7.29957855 31.86927552 7.33352875 30.43398743 7.37719727 28.99902344 C7.65072773 19.76978372 6.88808947 13.06558106 2 5 C1.3049758 3.34495813 0.63064865 1.68062622 0 0 Z " fill="#23573F" transform="translate(153,31)"/>
<path d="M0 0 C0.99 0.33 1.98 0.66 3 1 C3 1.99 3 2.98 3 4 C3.66 4 4.32 4 5 4 C4.96678529 6.71152807 4.89941312 9.41509346 4.8125 12.125 C4.80669922 12.88554688 4.80089844 13.64609375 4.79492188 14.4296875 C4.5694341 20.24226115 3.23769494 22.97451133 -1 27 C-1.66 27 -2.32 27 -3 27 C-3.226875 27.556875 -3.45375 28.11375 -3.6875 28.6875 C-5.42795527 31.75401643 -7.26790764 33.7646517 -10 36 C-13.3125 36.3125 -13.3125 36.3125 -16 36 C-16 35.34 -16 34.68 -16 34 C-14.845 33.71125 -13.69 33.4225 -12.5 33.125 C-7.7324396 31.21797584 -4.61739241 28.58284791 -1.5 24.515625 C1.74373347 16.91312467 0.58129245 8.1000867 0 0 Z " fill="#A9947D" transform="translate(123,24)"/>
<path d="M0 0 C1.32 0.33 2.64 0.66 4 1 C0.31343267 3.22730109 -3.19501221 5.16069885 -7.25 6.625 C-11.0103074 7.83761326 -11.0103074 7.83761326 -14 10 C-15.11375 10.268125 -16.2275 10.53625 -17.375 10.8125 C-21.48731304 12.15963703 -23.30684476 13.65395864 -26 17 C-26 17.99 -26 18.98 -26 20 C-24.68 20 -23.36 20 -22 20 C-21.525625 19.360625 -21.05125 18.72125 -20.5625 18.0625 C-19 16 -19 16 -16.3125 15.25 C-15.549375 15.1675 -14.78625 15.085 -14 15 C-15.79950957 17.58391118 -17.61317961 19.93418366 -20 22 C-23.875 22.4375 -23.875 22.4375 -27 22 C-27.66 20.35 -28.32 18.7 -29 17 C-21.17467371 8.75794036 -14.10438651 4.78721584 -3 2 C-2.01 2 -1.02 2 0 2 C0 1.34 0 0.68 0 0 Z " fill="#643231" transform="translate(94,37)"/>
<path d="M0 0 C0.66 0 1.32 0 2 0 C4.26278215 11.61121059 4.26278215 11.61121059 1.44921875 16.93359375 C-1.69764899 20.4270082 -4.27916007 22.64168187 -8.9453125 23.61328125 C-13.51289697 23.72899339 -16.14599258 23.56933828 -20 21 C-19.67 20.34 -19.34 19.68 -19 19 C-18.67 19.33 -18.34 19.66 -18 20 C-15.66702567 20.04092937 -13.33294775 20.04241723 -11 20 C-10.67 19.34 -10.34 18.68 -10 18 C-8.68 18 -7.36 18 -6 18 C-5.67 17.01 -5.34 16.02 -5 15 C-3.02 14.67 -1.04 14.34 1 14 C0.9278125 13.40832031 0.855625 12.81664063 0.78125 12.20703125 C0.30089977 8.11738278 -0.13310151 4.1261469 0 0 Z " fill="#AC804D" transform="translate(101,67)"/>
<path d="M0 0 C-0.99 0.66 -1.98 1.32 -3 2 C-3.36362818 4.20725073 -3.36362818 4.20725073 -3.1875 6.625 C-3.16042969 7.44226563 -3.13335937 8.25953125 -3.10546875 9.1015625 C-3.05326172 10.04128906 -3.05326172 10.04128906 -3 11 C-3.33 11 -3.66 11 -4 11 C-4 9.35 -4 7.7 -4 6 C-13.18304608 5.70032363 -13.18304608 5.70032363 -22 8 C-23.32 8 -24.64 8 -26 8 C-25.67 6.35 -25.34 4.7 -25 3 C-24.154375 2.96261719 -23.30875 2.92523438 -22.4375 2.88671875 C-14.76186409 2.49481496 -14.76186409 2.49481496 -7.4375 0.375 C-3.92331391 -1.03067444 -3.34792811 -1.09888231 0 0 Z " fill="#A98C7F" transform="translate(107,61)"/>
<path d="M0 0 C1.28132813 0.00902344 2.56265625 0.01804687 3.8828125 0.02734375 C4.87023437 0.03894531 5.85765625 0.05054687 6.875 0.0625 C7.205 2.3725 7.535 4.6825 7.875 7.0625 C4.66048731 8.66975635 1.43887464 8.11998185 -2.125 8.0625 C-2.125 6.7425 -2.125 5.4225 -2.125 4.0625 C-4.435 3.7325 -6.745 3.4025 -9.125 3.0625 C-9.125 2.4025 -9.125 1.7425 -9.125 1.0625 C-6.12186252 -0.43906874 -3.33432478 -0.03031204 0 0 Z " fill="#90370E" transform="translate(92.125,70.9375)"/>
<path d="M0 0 C7.875 0.875 7.875 0.875 9 2 C9.83152731 9.45176394 8.27405685 15.33147025 3.5625 21.25 C1.45665246 23.50993395 -0.38546285 25.37718384 -3 27 C-3.66 27 -4.32 27 -5 27 C-5 26.34 -5 25.68 -5 25 C-4.21625 24.566875 -3.4325 24.13375 -2.625 23.6875 C0.48413955 21.68876743 0.80958395 20.40118872 2 17 C3.5625 15.3125 3.5625 15.3125 5 14 C6.21693876 11.56612247 6.31959896 9.58161154 6.5625 6.875 C6.64628906 5.96492188 6.73007813 5.05484375 6.81640625 4.1171875 C6.87699219 3.41851563 6.93757813 2.71984375 7 2 C5.35 2 3.7 2 2 2 C1.9175 3.2375 1.835 4.475 1.75 5.75 C1.48143838 9.77842427 -0.01764211 11.3516662 -3 14 C-2.69147815 12.041036 -2.3780582 10.08284287 -2.0625 8.125 C-1.88847656 7.03445312 -1.71445313 5.94390625 -1.53515625 4.8203125 C-1 2 -1 2 0 0 Z " fill="#6A3123" transform="translate(110,17)"/>
<path d="M0 0 C5.625 -0.25 5.625 -0.25 9 2 C9 2.66 9 3.32 9 4 C9.928125 4.2165625 9.928125 4.2165625 10.875 4.4375 C13 5 13 5 15 6 C15.268125 6.61875 15.53625 7.2375 15.8125 7.875 C17.35221721 10.63028342 19.3112026 11.44332782 22 13 C22 13.66 22 14.32 22 15 C22.66 15 23.32 15 24 15 C23.67 15.99 23.34 16.98 23 18 C22.62875 17.525625 22.2575 17.05125 21.875 16.5625 C19.37353038 14.47794198 17.18406582 14.35378509 14 14 C14 13.01 14 12.02 14 11 C13.01 10.67 12.02 10.34 11 10 C7 5.54285714 7 5.54285714 7 3 C4.03 2.505 4.03 2.505 1 2 C0.67 2.99 0.34 3.98 0 5 C0 3.35 0 1.7 0 0 Z " fill="#988177" transform="translate(98,4)"/>
<path d="M0 0 C2.31 0 4.62 0 7 0 C8.83832664 3.10217621 9.47446226 5.39408679 9 9 C8.01 9.66 7.02 10.32 6 11 C6 10.34 6 9.68 6 9 C5.34 8.67 4.68 8.34 4 8 C4 7.34 4 6.68 4 6 C2.35 6 0.7 6 -1 6 C-1 5.34 -1 4.68 -1 4 C-4.96 3.67 -8.92 3.34 -13 3 C-13 2.34 -13 1.68 -13 1 C-8.17639811 0.80705592 -4.50353262 1.24252386 0 3 C0 2.01 0 1.02 0 0 Z " fill="#5B1968" transform="translate(88,7)"/>
<path d="M0 0 C3 0.125 3 0.125 4 1.125 C4.0979057 2.62238124 4.12974864 4.12442892 4.125 5.625 C4.12757812 6.4396875 4.13015625 7.254375 4.1328125 8.09375 C4 10.125 4 10.125 3 11.125 C1.00041636 11.16580783 -1.00045254 11.16754356 -3 11.125 C-3.19406478 9.47992782 -3.38007935 7.83390406 -3.5625 6.1875 C-3.66691406 5.27097656 -3.77132812 4.35445313 -3.87890625 3.41015625 C-3.91886719 2.65605469 -3.95882812 1.90195313 -4 1.125 C-3 0.125 -3 0.125 0 0 Z " fill="#575D79" transform="translate(108,96.875)"/>
<path d="M0 0 C2.93902349 -0.13481759 5.87189559 -0.23399416 8.8125 -0.3125 C10.06256836 -0.3753418 10.06256836 -0.3753418 11.33789062 -0.43945312 C13.65770066 -0.48603566 15.72818796 -0.47812444 18 0 C19.88671875 2.39453125 19.88671875 2.39453125 21 5 C21.99 5.66 22.98 6.32 24 7 C24 7.66 24 8.32 24 9 C15.71660244 6.67359898 7.66795641 3.9390187 0 0 Z " fill="#224D37" transform="translate(106,0)"/>
<path d="M0 0 C0.98484375 0.00902344 1.9696875 0.01804687 2.984375 0.02734375 C4.10585937 0.04474609 4.10585937 0.04474609 5.25 0.0625 C5.25 0.7225 5.25 1.3825 5.25 2.0625 C3.6 2.3925 1.95 2.7225 0.25 3.0625 C0.25 3.7225 0.25 4.3825 0.25 5.0625 C-1.68697967 5.39884376 -3.62460486 5.73147165 -5.5625 6.0625 C-7.18091797 6.3409375 -7.18091797 6.3409375 -8.83203125 6.625 C-11.75 7.0625 -11.75 7.0625 -14.75 7.0625 C-13.375 5.5625 -13.375 5.5625 -11.75 4.0625 C-11.09 4.0625 -10.43 4.0625 -9.75 4.0625 C-9.75 3.0725 -9.75 2.0825 -9.75 1.0625 C-6.43929162 0.06140485 -3.44915231 -0.04106134 0 0 Z " fill="#9C8D84" transform="translate(86.75,19.9375)"/>
<path d="M0 0 C0.90064221 2.5217982 1.19407719 3.57303018 0.0625 6.0625 C-0.4634375 7.0215625 -0.4634375 7.0215625 -1 8 C-1 8.99 -1 9.98 -1 11 C-3.99858606 14.83819016 -7.48259599 16.35730763 -12 18 C-12.99 18 -13.98 18 -15 18 C-15 18.66 -15 19.32 -15 20 C-16.98 20.33 -18.96 20.66 -21 21 C-15.85714286 16.57142857 -15.85714286 16.57142857 -12 16 C-12 15.34 -12 14.68 -12 14 C-6.58823529 10 -6.58823529 10 -4 10 C-2.26337666 6.77484237 -1.1094072 3.48670834 0 0 Z " fill="#311A2B" transform="translate(112,21)"/>
<path d="M0 0 C2.24993359 -0.02707139 4.49996095 -0.04642829 6.75 -0.0625 C8.00296875 -0.07410156 9.2559375 -0.08570312 10.546875 -0.09765625 C13.28536501 -0.02021027 15.41880293 0.17219185 18 1 C18 2.98 18 4.96 18 7 C17.34 7 16.68 7 16 7 C15.56300781 6.50757813 15.12601563 6.01515625 14.67578125 5.5078125 C12.42277644 3.48063335 11.16735575 3.71937005 8.1875 3.875 C4.30879704 3.99993626 0.81850222 3.8038952 -3 3 C-2.01 2.67 -1.02 2.34 0 2 C0 1.34 0 0.68 0 0 Z " fill="#958E88" transform="translate(91,1)"/>
<path d="M0 0 C0.99 0 1.98 0 3 0 C4.03013277 1.64821244 5.03114628 3.31503702 6 5 C6.66 5 7.32 5 8 5 C8.33 3.68 8.66 2.36 9 1 C10.32 1 11.64 1 13 1 C13 2.98 13 4.96 13 7 C11.54263913 7.19491452 10.08405407 7.38069358 8.625 7.5625 C7.81289062 7.66691406 7.00078125 7.77132812 6.1640625 7.87890625 C4 8 4 8 2 7 C2 7.66 2 8.32 2 9 C1.34 9 0.68 9 0 9 C0 6.03 0 3.06 0 0 Z " fill="#324161" transform="translate(88,98)"/>
<path d="M0 0 C0.99 0 1.98 0 3 0 C3 0.99 3 1.98 3 3 C0.09399739 4.25664978 -1.79604584 5 -5 5 C-5 5.66 -5 6.32 -5 7 C-5.87011719 7.07347656 -5.87011719 7.07347656 -6.7578125 7.1484375 C-10.4238056 7.49930813 -13.67788742 7.89262914 -17.1875 9.0625 C-20.27412012 10.09137337 -22.76853625 10.15387923 -26 10 C-26 9.01 -26 8.02 -26 7 C-25.01773438 6.94392578 -25.01773438 6.94392578 -24.015625 6.88671875 C-10.89318533 6.21190678 -10.89318533 6.21190678 0 0 Z " fill="#905102" transform="translate(95,31)"/>
<path d="M0 0 C2.64 0 5.28 0 8 0 C8 2.64 8 5.28 8 8 C7.34 8 6.68 8 6 8 C6 7.34 6 6.68 6 6 C5.01 6 4.02 6 3 6 C3.33 7.32 3.66 8.64 4 10 C2.68 10 1.36 10 0 10 C0 6.7 0 3.4 0 0 Z " fill="#374263" transform="translate(77,98)"/>
<path d="M0 0 C-0.41218091 5.25530665 -1.06962644 8.37196287 -5 12 C-7.63673561 13.25534831 -10.20213618 14.11400979 -13 15 C-13 14.34 -13 13.68 -13 13 C-11.35 12.67 -9.7 12.34 -8 12 C-8 11.34 -8 10.68 -8 10 C-14.435 10.495 -14.435 10.495 -21 11 C-20.67 10.34 -20.34 9.68 -20 9 C-17.45975996 8.52425562 -14.99948536 8.15992453 -12.4375 7.875 C-11.72658203 7.78863281 -11.01566406 7.70226562 -10.28320312 7.61328125 C-8.52310688 7.40065217 -6.76165836 7.19927303 -5 7 C-4.71125 6.030625 -4.4225 5.06125 -4.125 4.0625 C-2.63265306 0 -2.63265306 0 0 0 Z " fill="#85616E" transform="translate(100,10)"/>
<path d="M0 0 C0 1.98 0 3.96 0 6 C-1.32 6.33 -2.64 6.66 -4 7 C-4 9.64 -4 12.28 -4 15 C-2.02 15 -0.04 15 2 15 C0.8125 16.5625 0.8125 16.5625 -1 18 C-3.6875 17.6875 -3.6875 17.6875 -6 17 C-6 16.34 -6 15.68 -6 15 C-6.66 15 -7.32 15 -8 15 C-8 12.36 -8 9.72 -8 7 C-7.34 7 -6.68 7 -6 7 C-6 6.01 -6 5.02 -6 4 C-1.54285714 0 -1.54285714 0 0 0 Z " fill="#83768A" transform="translate(61,17)"/>
<path d="M0 0 C1.24107309 3.72321927 0.22504524 5.32522781 -1.16796875 8.85546875 C-4.46225402 17.34637304 -4.58545436 26.01090502 -5 35 C-5.33 35 -5.66 35 -6 35 C-6.08816905 31.35432287 -6.14077948 27.70892526 -6.1875 24.0625 C-6.21263672 23.04091797 -6.23777344 22.01933594 -6.26367188 20.96679688 C-6.32659512 14.40180496 -5.5512675 9.0660915 -3 3 C-2.34 3 -1.68 3 -1 3 C-0.67 2.01 -0.34 1.02 0 0 Z " fill="#2A4E30" transform="translate(21,38)"/>
<path d="M0 0 C-1.18215987 3.54647962 -2.60018411 4.39504841 -5.8125 6.1484375 C-9.73970066 7.67724061 -13.82191663 7.83186787 -18 8 C-17.67 7.01 -17.34 6.02 -17 5 C-15.02 4.67 -13.04 4.34 -11 4 C-11 3.34 -11 2.68 -11 2 C-6.25 1 -6.25 1 -4 1 C-2 0 -2 0 0 0 Z " fill="#180F46" transform="translate(108,37)"/>
<path d="M0 0 C0.33 0.66 0.66 1.32 1 2 C-0.65 2.33 -2.3 2.66 -4 3 C-4.33 4.32 -4.66 5.64 -5 7 C-4.09636719 6.6390625 -3.19273438 6.278125 -2.26171875 5.90625 C-1.08222656 5.4421875 0.09726562 4.978125 1.3125 4.5 C2.48425781 4.0359375 3.65601562 3.571875 4.86328125 3.09375 C8 2 8 2 11 2 C7.67372847 5.88065012 3.80640934 8.33441261 -1 10 C-4 9.75 -4 9.75 -6 9 C-6 6.36 -6 3.72 -6 1 C-4.02 0.67 -2.04 0.34 0 0 Z " fill="#412F63" transform="translate(62,23)"/>
<path d="M0 0 C-1.17369141 0.38091797 -1.17369141 0.38091797 -2.37109375 0.76953125 C-3.88896484 1.28580078 -3.88896484 1.28580078 -5.4375 1.8125 C-6.44683594 2.14894531 -7.45617187 2.48539063 -8.49609375 2.83203125 C-9.32238281 3.21746094 -10.14867188 3.60289063 -11 4 C-11.33 4.99 -11.66 5.98 -12 7 C-12.66 7 -13.32 7 -14 7 C-14.66 9.64 -15.32 12.28 -16 15 C-14.35 14.01 -12.7 13.02 -11 12 C-11.33 13.98 -11.66 15.96 -12 18 C-13.65 17.67 -15.3 17.34 -17 17 C-17.42273372 10.87036113 -17.02168763 7.94093052 -13 3 C-12.319375 2.1028125 -12.319375 2.1028125 -11.625 1.1875 C-7.9892088 -1.46942434 -4.12068728 -1.17479637 0 0 Z " fill="#9A4B0D" transform="translate(91,51)"/>
<path d="M0 0 C-1.99284734 1.34517195 -3.99239853 2.67709629 -6 4 C-6.68449219 4.45503906 -7.36898437 4.91007812 -8.07421875 5.37890625 C-8.77160156 5.83136719 -9.46898438 6.28382812 -10.1875 6.75 C-10.84105469 7.17796875 -11.49460937 7.6059375 -12.16796875 8.046875 C-14 9 -14 9 -17 9 C-17 10.98 -17 12.96 -17 15 C-17.33 15 -17.66 15 -18 15 C-18 12.69 -18 10.38 -18 8 C-17.01 7.67 -16.02 7.34 -15 7 C-14.67 6.01 -14.34 5.02 -14 4 C-9.2143658 0.38418749 -5.87982866 -1.88994492 0 0 Z " fill="#A37017" transform="translate(75,31)"/>
<path d="M0 0 C1.82144531 0.24363281 1.82144531 0.24363281 3.6796875 0.4921875 C9.82584504 1.17295564 15.94776495 1.14608271 22.125 1.125 C23.26582031 1.12886719 24.40664062 1.13273437 25.58203125 1.13671875 C31.15911517 1.1302413 36.50890222 1.0027222 42 0 C41.67 0.66 41.34 1.32 41 2 C34.95341385 3.72729524 28.41990968 3.41029192 22.1706543 3.61254883 C19.94071137 3.68739222 17.7117523 3.77804231 15.48242188 3.86914062 C14.0599287 3.91764051 12.63740304 3.96519866 11.21484375 4.01171875 C9.92698975 4.05772217 8.63913574 4.10372559 7.31225586 4.15112305 C4.19197092 4.00875875 2.58552825 3.66785928 0 2 C0 1.34 0 0.68 0 0 Z " fill="#1C5E33" transform="translate(66,126)"/>
<path d="M0 0 C0.66 0 1.32 0 2 0 C1.45912682 3.78611227 -0.11722332 5.55400767 -3 8 C-3.66 8 -4.32 8 -5 8 C-5.33498301 10.33165034 -5.33498301 10.33165034 -5 13 C-3.10415891 15.31377147 -3.10415891 15.31377147 -1 17 C-1.33 17.66 -1.66 18.32 -2 19 C-8.67982063 12.74618834 -8.67982063 12.74618834 -9.46484375 8.46484375 C-9.44050287 6.2706872 -9.3165011 4.17029328 -9 2 C-8.01 2.495 -8.01 2.495 -7 3 C-7 3.99 -7 4.98 -7 6 C-4.00007271 4.70855022 -4.00007271 4.70855022 -1 3 C-0.67 2.01 -0.34 1.02 0 0 Z " fill="#975813" transform="translate(67,38)"/>
<path d="M0 0 C3.63 0 7.26 0 11 0 C8.03356356 1.48321822 5.11877459 2.85351442 2.0625 4.125 C1.22847656 4.47820313 0.39445312 4.83140625 -0.46484375 5.1953125 C-3.1230344 6.03905252 -5.22975484 6.14867148 -8 6 C-8.33 6.99 -8.66 7.98 -9 9 C-10.84765625 10.16796875 -10.84765625 10.16796875 -13.0625 11.1875 C-13.79597656 11.53167969 -14.52945313 11.87585937 -15.28515625 12.23046875 C-15.85105469 12.48441406 -16.41695312 12.73835937 -17 13 C-16.67 12.01 -16.34 11.02 -16 10 C-13.4375 8.8125 -13.4375 8.8125 -11 8 C-11 7.34 -11 6.68 -11 6 C-10.28972656 5.73445312 -9.57945313 5.46890625 -8.84765625 5.1953125 C-7.92855469 4.84210937 -7.00945313 4.48890625 -6.0625 4.125 C-5.14597656 3.77695312 -4.22945312 3.42890625 -3.28515625 3.0703125 C-0.85058944 2.2180914 -0.85058944 2.2180914 0 0 Z " fill="#134328" transform="translate(59,0)"/>
<path d="M0 0 C1.98 0 3.96 0 6 0 C6 0.99 6 1.98 6 3 C5.01 3.495 5.01 3.495 4 4 C4.99 4.66 5.98 5.32 7 6 C6.67 7.32 6.34 8.64 6 10 C4.02 10 2.04 10 0 10 C0 9.34 0 8.68 0 8 C0.66 8 1.32 8 2 8 C2.33 7.34 2.66 6.68 3 6 C1.68 5.67 0.36 5.34 -1 5 C-0.67 3.35 -0.34 1.7 0 0 Z " fill="#3D4B6D" transform="translate(67,98)"/>
<path d="M0 0 C0.66 0.33 1.32 0.66 2 1 C1.94199219 1.88042969 1.88398437 2.76085938 1.82421875 3.66796875 C1.31328481 10.76224531 1.31328481 10.76224531 4.1875 16.9375 C5.115625 17.618125 6.04375 18.29875 7 19 C7.9652279 20.08001175 8.903214 21.18498536 9.8125 22.3125 C10.534375 23.199375 11.25625 24.08625 12 25 C9.625 24.6875 9.625 24.6875 7 24 C6.34 23.01 5.68 22.02 5 21 C4.01 20.67 3.02 20.34 2 20 C-2.09582603 13.56370195 -0.91377777 7.32123155 0 0 Z " fill="#A0988C" transform="translate(55,34)"/>
<path d="M0 0 C1.53166168 4.08443115 0.63081652 7.79455657 0 12 C-3.96 12 -7.92 12 -12 12 C-12.33 10.68 -12.66 9.36 -13 8 C-13.99 8 -14.98 8 -16 8 C-16.33 8.99 -16.66 9.98 -17 11 C-17 9.35 -17 7.7 -17 6 C-15.02 6 -13.04 6 -11 6 C-10.67 7.32 -10.34 8.64 -10 10 C-7.03 10 -4.06 10 -1 10 C-1.33 7.69 -1.66 5.38 -2 3 C-1.34 3 -0.68 3 0 3 C0 2.01 0 1.02 0 0 Z " fill="#9A5213" transform="translate(101,68)"/>
<path d="M0 0 C0 4.06601048 -1.58333408 5.51496703 -4.19921875 8.48046875 C-6.92482265 10.7803818 -9.52200569 10.93044011 -13 11 C-13 11.66 -13 12.32 -13 13 C-14.98 13.33 -16.96 13.66 -19 14 C-18.67 13.01 -18.34 12.02 -18 11 C-16.02 10.67 -14.04 10.34 -12 10 C-12 9.34 -12 8.68 -12 8 C-11.38125 7.896875 -10.7625 7.79375 -10.125 7.6875 C-7.63473516 7.12474627 -7.63473516 7.12474627 -6 4 C-4.35857037 2.9590934 -2.69287785 1.95495674 -1 1 C-0.67 0.67 -0.34 0.34 0 0 Z " fill="#9D7337" transform="translate(120,47)"/>
<path d="M0 0 C7.42857143 -0.14285714 7.42857143 -0.14285714 11 1 C11.33 3.64 11.66 6.28 12 9 C11.67 8.34 11.34 7.68 11 7 C10.34 7 9.68 7 9 7 C8.67 5.68 8.34 4.36 8 3 C5.69 3 3.38 3 1 3 C1 3.99 1 4.98 1 6 C-0.65 6 -2.3 6 -4 6 C-3.01 5.67 -2.02 5.34 -1 5 C-0.67 3.35 -0.34 1.7 0 0 Z " fill="#906C85" transform="translate(87,4)"/>
<path d="M0 0 C-2.31 0.33 -4.62 0.66 -7 1 C-7 1.66 -7 2.32 -7 3 C-11.8043208 5.4021604 -16.73103895 5.61122229 -22 6 C-18.73502724 2.05754539 -15.96303914 1.17064441 -11 0.1875 C-9.783125 -0.06644531 -8.56625 -0.32039063 -7.3125 -0.58203125 C-4.38693428 -0.95117692 -2.71983618 -0.9995398 0 0 Z " fill="#4B282B" transform="translate(105,45)"/>
<path d="M0 0 C0 0.66 0 1.32 0 2 C-0.68964844 2.17015625 -1.37929687 2.3403125 -2.08984375 2.515625 C-9.53015591 4.43438863 -16.37676752 6.76438847 -22.9375 10.8125 C-23.618125 11.204375 -24.29875 11.59625 -25 12 C-25.66 11.67 -26.32 11.34 -27 11 C-15.67924528 3 -15.67924528 3 -8 3 C-8 2.34 -8 1.68 -8 1 C-5.10765685 0.17361624 -3.11257569 0 0 0 Z " fill="#83837D" transform="translate(75,1)"/>
<path d="M0 0 C1.65 0 3.3 0 5 0 C5.55353075 10.55808656 5.55353075 10.55808656 2 15 C1.080898 11.75611057 0.71720745 8.60648937 0.4375 5.25 C0.35371094 4.26515625 0.26992187 3.2803125 0.18359375 2.265625 C0.12300781 1.51796875 0.06242187 0.7703125 0 0 Z " fill="#361038" transform="translate(112,19)"/>
<path d="M0 0 C0 0.33 0 0.66 0 1 C-3.63 1.33 -7.26 1.66 -11 2 C-11 2.66 -11 3.32 -11 4 C-11.80824219 4.26554688 -12.61648437 4.53109375 -13.44921875 4.8046875 C-14.51785156 5.15789063 -15.58648437 5.51109375 -16.6875 5.875 C-17.74324219 6.22304687 -18.79898438 6.57109375 -19.88671875 6.9296875 C-22.63149994 7.87331366 -25.31692815 8.89491289 -28 10 C-27.78125 8.09765625 -27.78125 8.09765625 -27 6 C-25.03125 5.05859375 -25.03125 5.05859375 -22.5 4.4375 C-19.04166698 3.54089514 -15.72238352 2.56047922 -12.375 1.3125 C-8.10104918 -0.15024253 -4.49459644 -0.24515981 0 0 Z " fill="#445749" transform="translate(78,0)"/>
<path d="M0 0 C4.16138263 -0.08159574 7.9472484 0.01751476 12 1 C12 1.66 12 2.32 12 3 C9.29816945 4.35091528 6.88191794 4.33858058 3.875 4.5625 C2.77929688 4.64628906 1.68359375 4.73007813 0.5546875 4.81640625 C-0.28835937 4.87699219 -1.13140625 4.93757812 -2 5 C-1.34 3.35 -0.68 1.7 0 0 Z " fill="#480568" transform="translate(75,10)"/>
<path d="M0 0 C0 0.33 0 0.66 0 1 C-1.65 1.33 -3.3 1.66 -5 2 C-5 3.32 -5 4.64 -5 6 C-4.01 6.33 -3.02 6.66 -2 7 C-2.33 7.99 -2.66 8.98 -3 10 C-3.66 9.67 -4.32 9.34 -5 9 C-5 9.66 -5 10.32 -5 11 C-3.35 11 -1.7 11 0 11 C0 11.33 0 11.66 0 12 C-5.75 12.125 -5.75 12.125 -8 11 C-8 7.7 -8 4.4 -8 1 C-5.29120665 -0.35439668 -2.99066732 -0.06501451 0 0 Z " fill="#707A8E" transform="translate(72,97)"/>
<path d="M0 0 C0.33 0 0.66 0 1 0 C1.13481759 2.93902349 1.23399416 5.87189559 1.3125 8.8125 C1.3753418 10.06256836 1.3753418 10.06256836 1.43945312 11.33789062 C1.48604825 13.65832762 1.47785185 15.72754258 1 18 C-1.40625 19.96875 -1.40625 19.96875 -4 21 C-5.75149165 22.58245275 -5.75149165 22.58245275 -7 24 C-7.66 23.67 -8.32 23.34 -9 23 C-8.4225 22.52691406 -7.845 22.05382812 -7.25 21.56640625 C-2.81230664 17.80760753 -2.81230664 17.80760753 -0.50390625 12.67578125 C-0.56112676 10.42892242 -0.77361145 8.23507243 -1 6 C-0.71818839 3.9920923 -0.40743184 1.9862302 0 0 Z " fill="#B4A08D" transform="translate(104,66)"/>
<path d="M0 0 C0.75 1.75 0.75 1.75 1 4 C-0.75 5.9375 -0.75 5.9375 -3 8 C-3.474375 8.845625 -3.94875 9.69125 -4.4375 10.5625 C-6.35880171 13.55973066 -7.71814068 14.61432607 -11 16 C-13.7219085 16.23272824 -16.25859522 16.13939346 -19 16 C-19 15.67 -19 15.34 -19 15 C-18.40832031 14.84144531 -17.81664063 14.68289062 -17.20703125 14.51953125 C-11.8533697 12.93876006 -8.71086264 11.34701052 -5 7 C-4.2575 6.29875 -3.515 5.5975 -2.75 4.875 C-0.77556277 3.02022825 -0.77556277 3.02022825 0 0 Z " fill="#853A13" transform="translate(117,31)"/>
<path d="M0 0 C3.00229743 0.08605311 5.99736643 0.06127824 9 0 C9 0.66 9 1.32 9 2 C2.31184516 2.62422779 -4.28115045 3.12920865 -11 3 C-11 2.01 -11 1.02 -11 0 C-7.15095462 -1.38565634 -3.9815104 -0.58743596 0 0 Z " fill="#95959E" transform="translate(75,95)"/>
<path d="M0 0 C0.33 0 0.66 0 1 0 C1.55258488 11.68614693 1.55258488 11.68614693 -2 16 C-2.639375 16.86625 -3.27875 17.7325 -3.9375 18.625 C-5.83947384 20.81515169 -7.55580666 22.45201088 -10 24 C-10.66 24 -11.32 24 -12 24 C-12 23.34 -12 22.68 -12 22 C-11.21625 21.566875 -10.4325 21.13375 -9.625 20.6875 C-6.51586045 18.68876743 -6.19041605 17.40118872 -5 14 C-3.4375 12.3125 -3.4375 12.3125 -2 11 C-0.85185003 8.70370006 -0.69230191 6.92301914 -0.4375 4.375 C-0.35371094 3.55773437 -0.26992187 2.74046875 -0.18359375 1.8984375 C-0.12300781 1.27195312 -0.06242187 0.64546875 0 0 Z " fill="#59192A" transform="translate(117,20)"/>
<path d="M0 0 C0.66 0.33 1.32 0.66 2 1 C1.67537556 3.92161999 0.78173807 5.29328947 -1 7.6875 C-4.9305353 10.71728763 -8.15051892 10.8837815 -13 11 C-11.62102771 8.24205543 -9.47669255 7.58455882 -6.85546875 6.15234375 C-4.12142143 4.45435646 -2.16894347 2.36612015 0 0 Z " fill="#1C5C37" transform="translate(139,108)"/>
<path d="M0 0 C3.8212562 2.46532658 3.8212562 2.46532658 4.61621094 4.84326172 C5.28322248 8.59159505 5.22599932 12.32689161 5.25 16.125 C5.270625 16.94871094 5.29125 17.77242187 5.3125 18.62109375 C5.31765625 19.40871094 5.3228125 20.19632813 5.328125 21.0078125 C5.3374707 21.72598145 5.34681641 22.44415039 5.35644531 23.18408203 C5.18000488 24.08296143 5.18000488 24.08296143 5 25 C4.01 25.66 3.02 26.32 2 27 C2.165 26.071875 2.33 25.14375 2.5 24.1875 C3.68622653 15.55246865 3.35944851 8.09867051 0 0 Z " fill="#9E5B30" transform="translate(119,20)"/>
<path d="M0 0 C1.32 0.33 2.64 0.66 4 1 C0.31343267 3.22730109 -3.19501221 5.16069885 -7.25 6.625 C-11.0103074 7.83761326 -11.0103074 7.83761326 -14 10 C-16.1875 9.625 -16.1875 9.625 -18 9 C-15 7 -15 7 -12 7 C-12 6.34 -12 5.68 -12 5 C-10.56445975 4.49440092 -9.1264798 3.9957251 -7.6875 3.5 C-6.88699219 3.2215625 -6.08648437 2.943125 -5.26171875 2.65625 C-3 2 -3 2 0 2 C0 1.34 0 0.68 0 0 Z " fill="#54321E" transform="translate(94,37)"/>
<path d="M0 0 C1 2 1 2 0.43359375 4.27734375 C-2.26567164 11.48597015 -2.26567164 11.48597015 -6.125 14.1875 C-9 15 -9 15 -11 14 C-10.54109375 13.57589844 -10.0821875 13.15179688 -9.609375 12.71484375 C-5.47640381 8.76420952 -2.59838877 5.09284198 0 0 Z " fill="#29633D" transform="translate(152,93)"/>
<path d="M0 0 C0.2475 0.639375 0.495 1.27875 0.75 1.9375 C1.81562433 4.18741541 1.81562433 4.18741541 4.125 4.75 C4.74375 4.8325 5.3625 4.915 6 5 C6 6.32 6 7.64 6 9 C4.02 9 2.04 9 0 9 C-0.66 6.36 -1.32 3.72 -2 1 C-1.34 0.67 -0.68 0.34 0 0 Z " fill="#8E4D05" transform="translate(83,79)"/>
<path d="M0 0 C5.625 -0.25 5.625 -0.25 9 2 C9.33 2.99 9.66 3.98 10 5 C10.680625 5.680625 11.36125 6.36125 12.0625 7.0625 C12.701875 7.701875 13.34125 8.34125 14 9 C14 9.66 14 10.32 14 11 C10.28631113 9.76210371 9.22645819 8.14775123 7 5 C7 4.34 7 3.68 7 3 C4.03 2.505 4.03 2.505 1 2 C0.67 2.99 0.34 3.98 0 5 C0 3.35 0 1.7 0 0 Z " fill="#967255" transform="translate(98,4)"/>
<path d="M0 0 C3.71599191 -0.20086443 4.77208445 -0.1519437 8 2 C8 2.66 8 3.32 8 4 C4.78548731 5.60725635 1.56387464 5.05748185 -2 5 C-1.34 3.35 -0.68 1.7 0 0 Z " fill="#843A04" transform="translate(92,74)"/>
<path d="M0 0 C0.66 0 1.32 0 2 0 C2.33 3.3 2.66 6.6 3 10 C0.69 10.33 -1.62 10.66 -4 11 C-4.33 10.01 -4.66 9.02 -5 8 C-2.525 8.495 -2.525 8.495 0 9 C0 6.03 0 3.06 0 0 Z " fill="#717991" transform="translate(102,98)"/>
<path d="M0 0 C2 1 2 1 2.78125 2.85546875 C3.0184375 3.62503906 3.255625 4.39460938 3.5 5.1875 C3.75394531 5.99445313 4.00789063 6.80140625 4.26953125 7.6328125 C4.51058594 8.41398437 4.75164063 9.19515625 5 10 C5.5878125 11.7634375 5.5878125 11.7634375 6.1875 13.5625 C6.455625 14.366875 6.72375 15.17125 7 16 C6.34 15.67 5.68 15.34 5 15 C5 14.01 5 13.02 5 12 C4.360625 11.731875 3.72125 11.46375 3.0625 11.1875 C1 10 1 10 0 7 C-0.03954234 4.66700175 -0.04401732 2.33291811 0 0 Z " fill="#2D4F31" transform="translate(16,77)"/>
<path d="M0 0 C3.3 0 6.6 0 10 0 C8.515 1.98 8.515 1.98 7 4 C5.68 4 4.36 4 3 4 C2.67 4.99 2.34 5.98 2 7 C1.67 7 1.34 7 1 7 C0.67 4.69 0.34 2.38 0 0 Z " fill="#AF6D03" transform="translate(88,81)"/>
<path d="M0 0 C0.33 0 0.66 0 1 0 C1.33 7.92 1.66 15.84 2 24 C1.67 24 1.34 24 1 24 C-1.82635836 16.01969403 -0.7431678 8.27527386 0 0 Z " fill="#0A451B" transform="translate(14,58)"/>
<path d="M0 0 C0 0.99 0 1.98 0 3 C-0.99 3.66 -1.98 4.32 -3 5 C-3.68753301 6.65816784 -4.35561283 8.32459336 -5 10 C-5.99 10.495 -5.99 10.495 -7 11 C-7.66 11.99 -8.32 12.98 -9 14 C-8.4012875 9.80901248 -7.83074561 5.83584794 -6 2 C-2.875 0.625 -2.875 0.625 0 0 Z " fill="#2B5035" transform="translate(31,24)"/>
<path d="M0 0 C4.4571874 0.26218749 6.51522698 0.57711289 9.9375 3.5625 C10.618125 4.366875 11.29875 5.17125 12 6 C11.67 6.99 11.34 7.98 11 9 C10.45730469 8.57847656 9.91460937 8.15695313 9.35546875 7.72265625 C8.64003906 7.17480469 7.92460937 6.62695312 7.1875 6.0625 C6.47980469 5.51722656 5.77210938 4.97195312 5.04296875 4.41015625 C2.95874948 2.83143752 2.95874948 2.83143752 0 2 C0 1.34 0 0.68 0 0 Z " fill="#2D5440" transform="translate(130,9)"/>
<path d="M0 0 C0.54140625 0.48082031 1.0828125 0.96164063 1.640625 1.45703125 C4.47897288 3.31323558 6.38792626 3.48737656 9.75 3.6875 C11.22726563 3.78611328 11.22726563 3.78611328 12.734375 3.88671875 C13.85585937 3.94279297 13.85585937 3.94279297 15 4 C15 4.66 15 5.32 15 6 C13.06318839 6.08107583 11.1254066 6.13922475 9.1875 6.1875 C8.10855469 6.22230469 7.02960938 6.25710937 5.91796875 6.29296875 C3 6 3 6 1.11328125 4.67578125 C0 3 0 3 0 0 Z " fill="#B69C85" transform="translate(80,86)"/>
<path d="M0 0 C0.99 0.33 1.98 0.66 3 1 C3.05384521 3.29141286 3.09272087 5.58318188 3.125 7.875 C3.14820312 9.15117188 3.17140625 10.42734375 3.1953125 11.7421875 C3 15 3 15 1 17 C0.67 11.39 0.34 5.78 0 0 Z " fill="#A57D64" transform="translate(123,24)"/>
<path d="M0 0 C-5.5540573 3.70270486 -9.45504337 4.22186294 -16 4 C-10.990803 -0.26709374 -6.4078147 -0.12564343 0 0 Z " fill="#AA8D62" transform="translate(87,25)"/>
<path d="M0 0 C2.375 0.25 2.375 0.25 5 1 C6.3125 3.0625 6.3125 3.0625 7 5 C6.01 5 5.02 5 4 5 C1.82967524 6.43990623 1.82967524 6.43990623 0 8 C0 5.36 0 2.72 0 0 Z " fill="#883C07" transform="translate(101,8)"/>
<path d="M0 0 C0.99 0 1.98 0 3 0 C3 2.97 3 5.94 3 9 C2.01 9 1.02 9 0 9 C0 8.01 0 7.02 0 6 C-1.43750191 4.31201173 -1.43750191 4.31201173 -3 3 C-2.01 3 -1.02 3 0 3 C0 2.01 0 1.02 0 0 Z " fill="#6D7392" transform="translate(73,98)"/>
<path d="M0 0 C0 1.65 0 3.3 0 5 C-2.97 4.505 -2.97 4.505 -6 4 C-6 2.68 -6 1.36 -6 0 C-3.50907189 -1.24546405 -2.58919267 -0.7767578 0 0 Z " fill="#79251F" transform="translate(83,75)"/>
<path d="M0 0 C4.16871752 2.50123051 6.98422938 4.49415979 9 9 C8.67 9.66 8.34 10.32 8 11 C7.34 10.67 6.68 10.34 6 10 C6 9.34 6 8.68 6 8 C5.34 8 4.68 8 4 8 C3.67 6.68 3.34 5.36 3 4 C2.01 4 1.02 4 0 4 C0 2.68 0 1.36 0 0 Z " fill="#75887F" transform="translate(144,21)"/>
<path d="M0 0 C5.37305699 0.52849741 5.37305699 0.52849741 8 2 C9.63355946 5.21390851 10.37353165 8.46306413 11 12 C10.5565625 11.55527344 10.113125 11.11054688 9.65625 10.65234375 C8.28023478 9.27957385 6.89167942 7.91938743 5.5 6.5625 C3.44594102 4.45708954 1.68778983 2.39843818 0 0 Z " fill="#1C5138" transform="translate(142,18)"/>
<path d="M0 0 C0.90492187 0.02320312 1.80984375 0.04640625 2.7421875 0.0703125 C4.10730469 0.09738281 4.10730469 0.09738281 5.5 0.125 C6.19867188 0.14820312 6.89734375 0.17140625 7.6171875 0.1953125 C7.6171875 1.8453125 7.6171875 3.4953125 7.6171875 5.1953125 C6.2971875 5.1953125 4.9771875 5.1953125 3.6171875 5.1953125 C3.9471875 3.8753125 4.2771875 2.5553125 4.6171875 1.1953125 C0.1621875 1.6903125 0.1621875 1.6903125 -4.3828125 2.1953125 C-2.3828125 0.1953125 -2.3828125 0.1953125 0 0 Z " fill="#7F4549" transform="translate(93.3828125,65.8046875)"/>
<path d="M0 0 C-1.93467942 0.83986084 -3.87285129 1.67168027 -5.8125 2.5 C-7.43091797 3.19609375 -7.43091797 3.19609375 -9.08203125 3.90625 C-12 5 -12 5 -15 5 C-12.42204878 2.04293831 -10.75869897 0.21677113 -6.9375 -0.875 C-4.27449429 -0.98831939 -2.52327851 -0.7054327 0 0 Z " fill="#723D12" transform="translate(91,51)"/>
<path d="M0 0 C0.99 0 1.98 0 3 0 C3 1.32 3 2.64 3 4 C4.32 4.33 5.64 4.66 7 5 C6.67 5.99 6.34 6.98 6 8 C4.02 7.01 2.04 6.02 0 5 C0 3.35 0 1.7 0 0 Z " fill="#363F61" transform="translate(104,98)"/>
<path d="M0 0 C1.65 0 3.3 0 5 0 C5 1.32 5 2.64 5 4 C3.02 4.33 1.04 4.66 -1 5 C-0.67 3.35 -0.34 1.7 0 0 Z " fill="#B18A7E" transform="translate(82,64)"/>
<path d="M0 0 C4 1 4 1 5 2 C5.04080783 3.99958364 5.04254356 6.00045254 5 8 C5.66 8.33 6.32 8.66 7 9 C6.01 10.485 6.01 10.485 5 12 C3.35 8.04 1.7 4.08 0 0 Z " fill="#185033" transform="translate(153,31)"/>
<path d="M0 0 C3.64824138 0.60943163 5.8159523 2.15450092 8.6875 4.4375 C9.47511719 5.05496094 10.26273438 5.67242188 11.07421875 6.30859375 C13 8 13 8 14 10 C8.2567539 8.14189097 4.0977565 4.32540964 0 0 Z " fill="#818B85" transform="translate(130,11)"/>
<path d="M0 0 C0 0.99 0 1.98 0 3 C-1.41623216 3.05447047 -2.83308191 3.09300508 -4.25 3.125 C-5.03890625 3.14820312 -5.8278125 3.17140625 -6.640625 3.1953125 C-9.20731941 2.9828378 -10.7916067 2.28654105 -13 1 C-8.60563789 0.14256349 -4.47427924 -0.08948558 0 0 Z " fill="#8E8F9A" transform="translate(111,95)"/>
<path d="M0 0 C1.258125 -0.020625 2.51625 -0.04125 3.8125 -0.0625 C4.52019531 -0.07410156 5.22789063 -0.08570312 5.95703125 -0.09765625 C8 0 8 0 11 1 C11 1.66 11 2.32 11 3 C11.66 3.33 12.32 3.66 13 4 C8.51474352 3.343621 4.33085971 2.29925791 0 1 C0 0.67 0 0.34 0 0 Z " fill="#678C71" transform="translate(58,123)"/>
<path d="M0 0 C-0.33 0.99 -0.66 1.98 -1 3 C-4.3 3 -7.6 3 -11 3 C-7.72430636 -0.27569364 -4.48909309 -0.12469703 0 0 Z " fill="#641E32" transform="translate(98,67)"/>
<path d="M0 0 C0 3 0 3 -1.35546875 4.5703125 C-7.42718924 9.72285995 -7.42718924 9.72285995 -12 10 C-12 9.34 -12 8.68 -12 8 C-11.38125 7.896875 -10.7625 7.79375 -10.125 7.6875 C-7.63473516 7.12474627 -7.63473516 7.12474627 -6 4 C-4.35857037 2.9590934 -2.69287785 1.95495674 -1 1 C-0.67 0.67 -0.34 0.34 0 0 Z " fill="#9A6621" transform="translate(120,47)"/>
<path d="M0 0 C0.99 0.33 1.98 0.66 3 1 C2.01 2.98 1.02 4.96 0 7 C-0.99 6.67 -1.98 6.34 -3 6 C-2.42655063 3.13275314 -2.1385485 2.1385485 0 0 Z " fill="#1A1043" transform="translate(72,51)"/>
<path d="M0 0 C0 1.98 0 3.96 0 6 C-1.98 6.33 -3.96 6.66 -6 7 C-6 6.01 -6 5.02 -6 4 C-1.54285714 0 -1.54285714 0 0 0 Z " fill="#8E8295" transform="translate(61,17)"/>
<path d="M0 0 C1.98 0 3.96 0 6 0 C6.33 1.32 6.66 2.64 7 4 C6.01 4 5.02 4 4 4 C4 3.34 4 2.68 4 2 C3.01 2 2.02 2 1 2 C0.67 2.99 0.34 3.98 0 5 C0 3.35 0 1.7 0 0 Z " fill="#9C4B1E" transform="translate(84,74)"/>
<path d="M0 0 C0.66 0.33 1.32 0.66 2 1 C0.02 2.98 -1.96 4.96 -4 7 C-4.99 6.67 -5.98 6.34 -7 6 C-3.375 1.125 -3.375 1.125 0 0 Z " fill="#4E2035" transform="translate(78,52)"/>
<path d="M0 0 C2.625 -0.1875 2.625 -0.1875 5 0 C5.33 1.65 5.66 3.3 6 5 C3.36 4.34 0.72 3.68 -2 3 C-1.34 2.01 -0.68 1.02 0 0 Z " fill="#914107" transform="translate(94,71)"/>
<path d="M0 0 C0.99 0 1.98 0 3 0 C3.33 1.65 3.66 3.3 4 5 C2.02 5.99 2.02 5.99 0 7 C0 4.69 0 2.38 0 0 Z " fill="#192946" transform="translate(88,98)"/>
<path d="M0 0 C2.475 0.99 2.475 0.99 5 2 C5 1.34 5 0.68 5 0 C5.66 0.33 6.32 0.66 7 1 C6.34 2.65 5.68 4.3 5 6 C4.01 5.67 3.02 5.34 2 5 C0.8125 2.4375 0.8125 2.4375 0 0 Z " fill="#6F7288" transform="translate(91,98)"/>
<path d="M0 0 C2.01136276 2.55991624 3.62845496 5.04590299 5 8 C3.35 7.67 1.7 7.34 0 7 C-1.04449911 3.86650268 -0.93423645 3.01031744 0 0 Z " fill="#1F4B26" transform="translate(23,93)"/>
<path d="M0 0 C2.9375 0.8125 2.9375 0.8125 6 2 C6.33 2.99 6.66 3.98 7 5 C6.34 5.66 5.68 6.32 5 7 C3.29115995 5.37660195 1.62553283 3.70680947 0 2 C0 1.34 0 0.68 0 0 Z " fill="#AF8D81" transform="translate(74,81)"/>
<path d="M0 0 C0.99 0.33 1.98 0.66 3 1 C3 1.99 3 2.98 3 4 C-0.96 3.67 -4.92 3.34 -9 3 C-9 2.67 -9 2.34 -9 2 C-6.03 2 -3.06 2 0 2 C0 1.34 0 0.68 0 0 Z " fill="#989AA8" transform="translate(85,107)"/>
<path d="M0 0 C1.875 0.25 1.875 0.25 4 1 C5.3125 2.875 5.3125 2.875 6 5 C5.67 5.99 5.34 6.98 5 8 C0 2.25 0 2.25 0 0 Z " fill="#955027" transform="translate(77,79)"/>
<path d="M0 0 C4.62 0 9.24 0 14 0 C14 0.33 14 0.66 14 1 C12.98679687 1.09087891 12.98679687 1.09087891 11.953125 1.18359375 C11.06109375 1.26738281 10.1690625 1.35117188 9.25 1.4375 C8.36828125 1.51871094 7.4865625 1.59992188 6.578125 1.68359375 C4.30649548 1.96238465 2.20148177 2.38790577 0 3 C0 2.01 0 1.02 0 0 Z " fill="#9C7886" transform="translate(87,65)"/>
<path d="M0 0 C2.31 1.98 4.62 3.96 7 6 C6.01 6.33 5.02 6.66 4 7 C2 5.1875 2 5.1875 0 3 C0 2.01 0 1.02 0 0 Z " fill="#9E8179" transform="translate(60,52)"/>
<path d="M0 0 C-2.31 0.33 -4.62 0.66 -7 1 C-7.33 1.99 -7.66 2.98 -8 4 C-9.32 3.67 -10.64 3.34 -12 3 C-7.91789166 -0.35316042 -5.14839074 -1.65483988 0 0 Z " fill="#A67523" transform="translate(75,31)"/>
<path d="M0 0 C1.9375 1 1.9375 1 4 3 C4.66549451 5.69924572 4.81680763 8.20631637 5 11 C2.77174356 8.77174356 2.30760631 7.34238372 1.375 4.375 C1.11460938 3.55773437 0.85421875 2.74046875 0.5859375 1.8984375 C0.39257812 1.27195312 0.19921875 0.64546875 0 0 Z " fill="#974F35" transform="translate(119,20)"/>
<path d="M0 0 C0.33 0.99 0.66 1.98 1 3 C-0.28965176 4.37562854 -1.62689293 5.70766393 -3 7 C-3.66 7 -4.32 7 -5 7 C-3.75023244 3.34683329 -3.32901247 2.21934164 0 0 Z " fill="#231550" transform="translate(73,19)"/>
<path d="M0 0 C1.65 0 3.3 0 5 0 C2.702779 1.74271938 0.40133271 3.39911152 -2 5 C-4.1875 4.625 -4.1875 4.625 -6 4 C-3 2 -3 2 0 2 C0 1.34 0 0.68 0 0 Z " fill="#47212A" transform="translate(82,42)"/>
<path d="M0 0 C1.32 0.33 2.64 0.66 4 1 C1.47043472 4.0916909 -1.22454612 4.90931332 -5 6 C-5 5.34 -5 4.68 -5 4 C-3.35 3.67 -1.7 3.34 0 3 C0 2.01 0 1.02 0 0 Z " fill="#A47855" transform="translate(92,19)"/>
<path d="M0 0 C2.97 0.495 2.97 0.495 6 1 C4.68 1.33 3.36 1.66 2 2 C2 4.31 2 6.62 2 9 C1.67 9 1.34 9 1 9 C0.67 6.03 0.34 3.06 0 0 Z " fill="#95512D" transform="translate(99,6)"/>
<path d="M0 0 C1.98 0.66 3.96 1.32 6 2 C6 2.99 6 3.98 6 5 C5.01 5 4.02 5 3 5 C3 4.34 3 3.68 3 3 C2.01 3.33 1.02 3.66 0 4 C0 2.68 0 1.36 0 0 Z " fill="#868A9C" transform="translate(90,105)"/>
<path d="M0 0 C0 0.66 0 1.32 0 2 C-2.64 2 -5.28 2 -8 2 C-8 1.34 -8 0.68 -8 0 C-4.94736336 -0.98120464 -3.05263664 -0.98120464 0 0 Z " fill="#762D01" transform="translate(100,76)"/>
<path d="M0 0 C0 1.32 0 2.64 0 4 C-1.98 4.33 -3.96 4.66 -6 5 C-4.87312259 1.61936778 -3.78825335 0 0 0 Z " fill="#A6998B" transform="translate(83,21)"/>
<path d="M0 0 C1.65 0 3.3 0 5 0 C4.67 0.99 4.34 1.98 4 3 C1.03 3 -1.94 3 -5 3 C-5 2.67 -5 2.34 -5 2 C-3.35 2 -1.7 2 0 2 C0 1.34 0 0.68 0 0 Z " fill="#3E225B" transform="translate(90,15)"/>
<path d="M0 0 C0.99 0.33 1.98 0.66 3 1 C1.71283353 2.00578589 0.42011342 3.00446798 -0.875 4 C-1.95394531 4.8353125 -1.95394531 4.8353125 -3.0546875 5.6875 C-5 7 -5 7 -7 7 C-5.65117186 2.95351557 -3.65173931 2.04497401 0 0 Z " fill="#2C4A38" transform="translate(47,9)"/>
<path d="M0 0 C0.99 0 1.98 0 3 0 C3 1.98 3 3.96 3 6 C2.01 5.67 1.02 5.34 0 5 C0 3.35 0 1.7 0 0 Z " fill="#0F2146" transform="translate(98,99)"/>
<path d="M0 0 C0.33 0 0.66 0 1 0 C1 2.31 1 4.62 1 7 C0.34 7 -0.32 7 -1 7 C-1.33 7.99 -1.66 8.98 -2 10 C-3.39195915 5.82412255 -1.82323219 3.86525224 0 0 Z " fill="#14522A" transform="translate(158,82)"/>
<path d="M0 0 C0 1.32 0 2.64 0 4 C-2.31 4 -4.62 4 -7 4 C-3.375 0 -3.375 0 0 0 Z " fill="#AF7D1F" transform="translate(94,85)"/>
<path d="M0 0 C2.475 0.495 2.475 0.495 5 1 C5 1.66 5 2.32 5 3 C5.66 3.33 6.32 3.66 7 4 C4.03 3.505 4.03 3.505 1 3 C0.67 2.01 0.34 1.02 0 0 Z " fill="#903A16" transform="translate(74,68)"/>
</svg>
